<?xml version="1.0" encoding="UTF-8" standalone="no"?>
<!DOCTYPE svg PUBLIC "-//W3C//DTD SVG 1.1//EN"
 "http://www.w3.org/Graphics/SVG/1.1/DTD/svg11.dtd">
<!-- Generated by graphviz version 2.43.0 (0)
 -->
<!-- Title: tree Pages: 1 -->
<svg width="414pt" height="344pt"
 viewBox="5.76 5.76 407.76 337.76" xmlns="http://www.w3.org/2000/svg" xmlns:xlink="http://www.w3.org/1999/xlink">
<g id="graph0" class="graph" transform="scale(1 1) rotate(0) translate(9.76 333.76)">
<title>tree</title>
<polygon fill="white" stroke="transparent" points="-4,4 -4,-328 398,-328 398,4 -4,4"/>
<!-- n0 -->
<g id="node1" class="node">
<title>n0</title>
<path fill="none" stroke="#6b7280" d="M198.5,-324C198.5,-324 156.5,-324 156.5,-324 153.5,-324 150.5,-321 150.5,-318 150.5,-318 150.5,-312 150.5,-312 150.5,-309 153.5,-306 156.5,-306 156.5,-306 198.5,-306 198.5,-306 201.5,-306 204.5,-309 204.5,-312 204.5,-312 204.5,-318 204.5,-318 204.5,-321 201.5,-324 198.5,-324"/>
<text text-anchor="middle" x="177.5" y="-312.2" font-family="DejaVu Sans" font-size="11.00">IP&#45;MAT</text>
</g>
<!-- n1 -->
<g id="node2" class="node">
<title>n1</title>
<path fill="none" stroke="#6b7280" d="M163.5,-282C163.5,-282 121.5,-282 121.5,-282 118.5,-282 115.5,-279 115.5,-276 115.5,-276 115.5,-270 115.5,-270 115.5,-267 118.5,-264 121.5,-264 121.5,-264 163.5,-264 163.5,-264 166.5,-264 169.5,-267 169.5,-270 169.5,-270 169.5,-276 169.5,-276 169.5,-279 166.5,-282 163.5,-282"/>
<text text-anchor="middle" x="142.5" y="-270.2" font-family="DejaVu Sans" font-size="11.00">NP</text>
</g>
<!-- n0&#45;&gt;n1 -->
<g id="edge8" class="edge">
<title>n0&#45;&gt;n1</title>
<path fill="none" stroke="#9ca3af" stroke-width="1.1" d="M170.42,-305.91C164.44,-299.07 155.91,-289.33 149.86,-282.41"/>
<polygon fill="#9ca3af" stroke="#9ca3af" stroke-width="1.1" points="149.57,-282.08 149.57,-282.08 149.57,-282.08 149.57,-282.08"/>
</g>
<!-- n9 -->
<g id="node10" class="node">
<title>n9</title>
<path fill="none" stroke="#6b7280" d="M251.5,-282C251.5,-282 209.5,-282 209.5,-282 206.5,-282 203.5,-279 203.5,-276 203.5,-276 203.5,-270 203.5,-270 203.5,-267 206.5,-264 209.5,-264 209.5,-264 251.5,-264 251.5,-264 254.5,-264 257.5,-267 257.5,-270 257.5,-270 257.5,-276 257.5,-276 257.5,-279 254.5,-282 251.5,-282"/>
<text text-anchor="middle" x="230.5" y="-270.2" font-family="DejaVu Sans" font-size="11.00">CP</text>
</g>
<!-- n0&#45;&gt;n9 -->
<g id="edge18" class="edge">
<title>n0&#45;&gt;n9</title>
<path fill="none" stroke="#9ca3af" stroke-width="1.1" d="M188.23,-305.91C197.28,-299.07 210.19,-289.33 219.36,-282.41"/>
<polygon fill="#9ca3af" stroke="#9ca3af" stroke-width="1.1" points="219.79,-282.08 219.79,-282.08 219.79,-282.08 219.79,-282.08"/>
</g>
<!-- n2 -->
<g id="node3" class="node">
<title>n2</title>
<path fill="none" stroke="#6b7280" d="M54.5,-240C54.5,-240 12.5,-240 12.5,-240 9.5,-240 6.5,-237 6.5,-234 6.5,-234 6.5,-228 6.5,-228 6.5,-225 9.5,-222 12.5,-222 12.5,-222 54.5,-222 54.5,-222 57.5,-222 60.5,-225 60.5,-228 60.5,-228 60.5,-234 60.5,-234 60.5,-237 57.5,-240 54.5,-240"/>
<text text-anchor="middle" x="33.5" y="-228.2" font-family="DejaVu Sans" font-size="11.00">D</text>
</g>
<!-- n1&#45;&gt;n2 -->
<g id="edge2" class="edge">
<title>n1&#45;&gt;n2</title>
<path fill="none" stroke="#9ca3af" stroke-width="1.1" d="M120.44,-263.91C101.68,-257.02 74.85,-247.17 55.97,-240.25"/>
<polygon fill="#9ca3af" stroke="#9ca3af" stroke-width="1.1" points="55.52,-240.08 55.52,-240.08 55.52,-240.08 55.52,-240.08"/>
</g>
<!-- n4 -->
<g id="node5" class="node">
<title>n4</title>
<path fill="none" stroke="#6b7280" d="M127.5,-240C127.5,-240 85.5,-240 85.5,-240 82.5,-240 79.5,-237 79.5,-234 79.5,-234 79.5,-228 79.5,-228 79.5,-225 82.5,-222 85.5,-222 85.5,-222 127.5,-222 127.5,-222 130.5,-222 133.5,-225 133.5,-228 133.5,-228 133.5,-234 133.5,-234 133.5,-237 130.5,-240 127.5,-240"/>
<text text-anchor="middle" x="106.5" y="-228.2" font-family="DejaVu Sans" font-size="11.00">N$</text>
</g>
<!-- n1&#45;&gt;n4 -->
<g id="edge4" class="edge">
<title>n1&#45;&gt;n4</title>
<path fill="none" stroke="#9ca3af" stroke-width="1.1" d="M135.21,-263.91C129.07,-257.07 120.3,-247.33 114.07,-240.41"/>
<polygon fill="#9ca3af" stroke="#9ca3af" stroke-width="1.1" points="113.77,-240.08 113.77,-240.08 113.77,-240.08 113.77,-240.08"/>
</g>
<!-- n6 -->
<g id="node7" class="node">
<title>n6</title>
<path fill="none" stroke="#6b7280" d="M198.5,-240C198.5,-240 156.5,-240 156.5,-240 153.5,-240 150.5,-237 150.5,-234 150.5,-234 150.5,-228 150.5,-228 150.5,-225 153.5,-222 156.5,-222 156.5,-222 198.5,-222 198.5,-222 201.5,-222 204.5,-225 204.5,-228 204.5,-228 204.5,-234 204.5,-234 204.5,-237 201.5,-240 198.5,-240"/>
<text text-anchor="middle" x="177.5" y="-228.2" font-family="DejaVu Sans" font-size="11.00">NP</text>
</g>
<!-- n1&#45;&gt;n6 -->
<g id="edge7" class="edge">
<title>n1&#45;&gt;n6</title>
<path fill="none" stroke="#9ca3af" stroke-width="1.1" d="M149.58,-263.91C155.56,-257.07 164.09,-247.33 170.14,-240.41"/>
<polygon fill="#9ca3af" stroke="#9ca3af" stroke-width="1.1" points="170.43,-240.08 170.43,-240.08 170.43,-240.08 170.43,-240.08"/>
</g>
<!-- n3 -->
<g id="node4" class="node">
<title>n3</title>
<text text-anchor="middle" x="30.5" y="-177.2" font-family="DejaVu Sans Bold" font-size="11.00" fill="#111827">NaGajo</text>
</g>
<!-- n2&#45;&gt;n3 -->
<g id="edge1" class="edge">
<title>n2&#45;&gt;n3</title>
<path fill="none" stroke="#9ca3af" stroke-width="1.1" d="M33,-221.91C32.62,-215.59 32.07,-206.59 31.58,-198.63"/>
<polygon fill="#9ca3af" stroke="#9ca3af" stroke-width="1.1" points="31.56,-198.25 31.56,-198.25 31.56,-198.25 31.56,-198.25"/>
</g>
<!-- n5 -->
<g id="node6" class="node">
<title>n5</title>
<text text-anchor="middle" x="106.5" y="-177.2" font-family="DejaVu Sans Bold" font-size="11.00" fill="#111827">lomigo</text>
</g>
<!-- n4&#45;&gt;n5 -->
<g id="edge3" class="edge">
<title>n4&#45;&gt;n5</title>
<path fill="none" stroke="#9ca3af" stroke-width="1.1" d="M106.5,-221.91C106.5,-215.59 106.5,-206.59 106.5,-198.63"/>
<polygon fill="#9ca3af" stroke="#9ca3af" stroke-width="1.1" points="106.5,-198.25 106.5,-198.25 106.5,-198.25 106.5,-198.25"/>
</g>
<!-- n7 -->
<g id="node8" class="node">
<title>n7</title>
<path fill="none" stroke="#6b7280" d="M199.5,-189C199.5,-189 157.5,-189 157.5,-189 154.5,-189 151.5,-186 151.5,-183 151.5,-183 151.5,-177 151.5,-177 151.5,-174 154.5,-171 157.5,-171 157.5,-171 199.5,-171 199.5,-171 202.5,-171 205.5,-174 205.5,-177 205.5,-177 205.5,-183 205.5,-183 205.5,-186 202.5,-189 199.5,-189"/>
<text text-anchor="middle" x="178.5" y="-177.2" font-family="DejaVu Sans" font-size="11.00">N</text>
</g>
<!-- n6&#45;&gt;n7 -->
<g id="edge6" class="edge">
<title>n6&#45;&gt;n7</title>
<path fill="none" stroke="#9ca3af" stroke-width="1.1" d="M177.67,-221.91C177.85,-213.03 178.14,-198.81 178.32,-189.7"/>
<polygon fill="#9ca3af" stroke="#9ca3af" stroke-width="1.1" points="178.33,-189.27 178.33,-189.27 178.33,-189.27 178.33,-189.27"/>
</g>
<!-- n8 -->
<g id="node9" class="node">
<title>n8</title>
<text text-anchor="middle" x="150.5" y="-117.2" font-family="DejaVu Sans Bold" font-size="11.00" fill="#111827">niganigawanigi</text>
</g>
<!-- n7&#45;&gt;n8 -->
<g id="edge5" class="edge">
<title>n7&#45;&gt;n8</title>
<path fill="none" stroke="#9ca3af" stroke-width="1.1" d="M174.61,-170.94C170.55,-162.54 164.07,-149.12 158.85,-138.3"/>
<polygon fill="#9ca3af" stroke="#9ca3af" stroke-width="1.1" points="158.73,-138.05 158.73,-138.05 158.73,-138.05 158.73,-138.05"/>
</g>
<!-- n10 -->
<g id="node11" class="node">
<title>n10</title>
<path fill="none" stroke="#6b7280" d="M269.5,-240C269.5,-240 227.5,-240 227.5,-240 224.5,-240 221.5,-237 221.5,-234 221.5,-234 221.5,-228 221.5,-228 221.5,-225 224.5,-222 227.5,-222 227.5,-222 269.5,-222 269.5,-222 272.5,-222 275.5,-225 275.5,-228 275.5,-228 275.5,-234 275.5,-234 275.5,-237 272.5,-240 269.5,-240"/>
<text text-anchor="middle" x="248.5" y="-228.2" font-family="DejaVu Sans" font-size="11.00">CP&#45;me</text>
</g>
<!-- n9&#45;&gt;n10 -->
<g id="edge17" class="edge">
<title>n9&#45;&gt;n10</title>
<path fill="none" stroke="#9ca3af" stroke-width="1.1" d="M234.14,-263.91C237.22,-257.07 241.6,-247.33 244.72,-240.41"/>
<polygon fill="#9ca3af" stroke="#9ca3af" stroke-width="1.1" points="244.86,-240.08 244.86,-240.08 244.86,-240.08 244.86,-240.08"/>
</g>
<!-- n11 -->
<g id="node12" class="node">
<title>n11</title>
<path fill="none" stroke="#6b7280" d="M269.5,-189C269.5,-189 227.5,-189 227.5,-189 224.5,-189 221.5,-186 221.5,-183 221.5,-183 221.5,-177 221.5,-177 221.5,-174 224.5,-171 227.5,-171 227.5,-171 269.5,-171 269.5,-171 272.5,-171 275.5,-174 275.5,-177 275.5,-177 275.5,-183 275.5,-183 275.5,-186 272.5,-189 269.5,-189"/>
<text text-anchor="middle" x="248.5" y="-177.2" font-family="DejaVu Sans" font-size="11.00">C</text>
</g>
<!-- n10&#45;&gt;n11 -->
<g id="edge10" class="edge">
<title>n10&#45;&gt;n11</title>
<path fill="none" stroke="#9ca3af" stroke-width="1.1" d="M248.5,-221.91C248.5,-213.03 248.5,-198.81 248.5,-189.7"/>
<polygon fill="#9ca3af" stroke="#9ca3af" stroke-width="1.1" points="248.5,-189.27 248.5,-189.27 248.5,-189.27 248.5,-189.27"/>
</g>
<!-- n13 -->
<g id="node14" class="node">
<title>n13</title>
<path fill="none" stroke="#6b7280" d="M339.5,-189C339.5,-189 297.5,-189 297.5,-189 294.5,-189 291.5,-186 291.5,-183 291.5,-183 291.5,-177 291.5,-177 291.5,-174 294.5,-171 297.5,-171 297.5,-171 339.5,-171 339.5,-171 342.5,-171 345.5,-174 345.5,-177 345.5,-177 345.5,-183 345.5,-183 345.5,-186 342.5,-189 339.5,-189"/>
<text text-anchor="middle" x="318.5" y="-177.2" font-family="DejaVu Sans" font-size="11.00">IP&#45;SUB</text>
</g>
<!-- n10&#45;&gt;n13 -->
<g id="edge16" class="edge">
<title>n10&#45;&gt;n13</title>
<path fill="none" stroke="#9ca3af" stroke-width="1.1" d="M260.06,-221.91C272.85,-212.95 293.37,-198.59 306.38,-189.48"/>
<polygon fill="#9ca3af" stroke="#9ca3af" stroke-width="1.1" points="306.69,-189.27 306.69,-189.27 306.69,-189.27 306.69,-189.27"/>
</g>
<!-- n12 -->
<g id="node13" class="node">
<title>n12</title>
<text text-anchor="middle" x="248.5" y="-117.2" font-family="DejaVu Sans Bold" font-size="11.00" fill="#111827">me@</text>
</g>
<!-- n11&#45;&gt;n12 -->
<g id="edge9" class="edge">
<title>n11&#45;&gt;n12</title>
<path fill="none" stroke="#9ca3af" stroke-width="1.1" d="M248.5,-170.94C248.5,-162.54 248.5,-149.12 248.5,-138.3"/>
<polygon fill="#9ca3af" stroke="#9ca3af" stroke-width="1.1" points="248.5,-138.05 248.5,-138.05 248.5,-138.05 248.5,-138.05"/>
</g>
<!-- n14 -->
<g id="node15" class="node">
<title>n14</title>
<path fill="none" stroke="#6b7280" d="M339.5,-129C339.5,-129 297.5,-129 297.5,-129 294.5,-129 291.5,-126 291.5,-123 291.5,-123 291.5,-117 291.5,-117 291.5,-114 294.5,-111 297.5,-111 297.5,-111 339.5,-111 339.5,-111 342.5,-111 345.5,-114 345.5,-117 345.5,-117 345.5,-123 345.5,-123 345.5,-126 342.5,-129 339.5,-129"/>
<text text-anchor="middle" x="318.5" y="-117.2" font-family="DejaVu Sans" font-size="11.00">NP</text>
</g>
<!-- n13&#45;&gt;n14 -->
<g id="edge15" class="edge">
<title>n13&#45;&gt;n14</title>
<path fill="none" stroke="#9ca3af" stroke-width="1.1" d="M318.5,-170.94C318.5,-160.06 318.5,-140.79 318.5,-129.63"/>
<polygon fill="#9ca3af" stroke="#9ca3af" stroke-width="1.1" points="318.5,-129.37 318.5,-129.37 318.5,-129.37 318.5,-129.37"/>
</g>
<!-- n15 -->
<g id="node16" class="node">
<title>n15</title>
<path fill="none" stroke="#6b7280" d="M303.5,-78C303.5,-78 261.5,-78 261.5,-78 258.5,-78 255.5,-75 255.5,-72 255.5,-72 255.5,-66 255.5,-66 255.5,-63 258.5,-60 261.5,-60 261.5,-60 303.5,-60 303.5,-60 306.5,-60 309.5,-63 309.5,-66 309.5,-66 309.5,-72 309.5,-72 309.5,-75 306.5,-78 303.5,-78"/>
<text text-anchor="middle" x="282.5" y="-66.2" font-family="DejaVu Sans" font-size="11.00">D</text>
</g>
<!-- n14&#45;&gt;n15 -->
<g id="edge12" class="edge">
<title>n14&#45;&gt;n15</title>
<path fill="none" stroke="#9ca3af" stroke-width="1.1" d="M312.56,-110.91C306.03,-102.03 295.59,-87.81 288.89,-78.7"/>
<polygon fill="#9ca3af" stroke="#9ca3af" stroke-width="1.1" points="288.57,-78.27 288.57,-78.27 288.57,-78.27 288.57,-78.27"/>
</g>
<!-- n17 -->
<g id="node18" class="node">
<title>n17</title>
<path fill="none" stroke="#6b7280" d="M375.5,-78C375.5,-78 333.5,-78 333.5,-78 330.5,-78 327.5,-75 327.5,-72 327.5,-72 327.5,-66 327.5,-66 327.5,-63 330.5,-60 333.5,-60 333.5,-60 375.5,-60 375.5,-60 378.5,-60 381.5,-63 381.5,-66 381.5,-66 381.5,-72 381.5,-72 381.5,-75 378.5,-78 375.5,-78"/>
<text text-anchor="middle" x="354.5" y="-66.2" font-family="DejaVu Sans" font-size="11.00">N$</text>
</g>
<!-- n14&#45;&gt;n17 -->
<g id="edge14" class="edge">
<title>n14&#45;&gt;n17</title>
<path fill="none" stroke="#9ca3af" stroke-width="1.1" d="M324.44,-110.91C330.97,-102.03 341.41,-87.81 348.11,-78.7"/>
<polygon fill="#9ca3af" stroke="#9ca3af" stroke-width="1.1" points="348.43,-78.27 348.43,-78.27 348.43,-78.27 348.43,-78.27"/>
</g>
<!-- n16 -->
<g id="node17" class="node">
<title>n16</title>
<text text-anchor="middle" x="277.5" y="-15.2" font-family="DejaVu Sans Bold" font-size="11.00" fill="#111827">@adi</text>
</g>
<!-- n15&#45;&gt;n16 -->
<g id="edge11" class="edge">
<title>n15&#45;&gt;n16</title>
<path fill="none" stroke="#9ca3af" stroke-width="1.1" d="M281.67,-59.91C281.03,-53.59 280.11,-44.59 279.3,-36.63"/>
<polygon fill="#9ca3af" stroke="#9ca3af" stroke-width="1.1" points="279.26,-36.25 279.26,-36.25 279.26,-36.25 279.26,-36.25"/>
</g>
<!-- n18 -->
<g id="node19" class="node">
<title>n18</title>
<text text-anchor="middle" x="357.5" y="-15.2" font-family="DejaVu Sans Bold" font-size="11.00" fill="#111827">niwatece</text>
</g>
<!-- n17&#45;&gt;n18 -->
<g id="edge13" class="edge">
<title>n17&#45;&gt;n18</title>
<path fill="none" stroke="#9ca3af" stroke-width="1.1" d="M355,-59.91C355.38,-53.59 355.93,-44.59 356.42,-36.63"/>
<polygon fill="#9ca3af" stroke="#9ca3af" stroke-width="1.1" points="356.44,-36.25 356.44,-36.25 356.44,-36.25 356.44,-36.25"/>
</g>
</g>
</svg>
