<?xml version="1.0" encoding="UTF-8" standalone="no"?>
<!DOCTYPE svg PUBLIC "-//W3C//DTD SVG 1.1//EN"
 "http://www.w3.org/Graphics/SVG/1.1/DTD/svg11.dtd">
<!-- Generated by graphviz version 2.43.0 (0)
 -->
<!-- Title: tree Pages: 1 -->
<svg width="240pt" height="182pt"
 viewBox="5.76 5.76 234.26 175.76" xmlns="http://www.w3.org/2000/svg" xmlns:xlink="http://www.w3.org/1999/xlink">
<g id="graph0" class="graph" transform="scale(1 1) rotate(0) translate(9.76 171.76)">
<title>tree</title>
<polygon fill="white" stroke="transparent" points="-4,4 -4,-166 224.5,-166 224.5,4 -4,4"/>
<!-- n0 -->
<g id="node1" class="node">
<title>n0</title>
<path fill="none" stroke="#6b7280" d="M155,-162C155,-162 113,-162 113,-162 110,-162 107,-159 107,-156 107,-156 107,-150 107,-150 107,-147 110,-144 113,-144 113,-144 155,-144 155,-144 158,-144 161,-147 161,-150 161,-150 161,-156 161,-156 161,-159 158,-162 155,-162"/>
<text text-anchor="middle" x="134" y="-150.2" font-family="DejaVu Sans" font-size="11.00">IP&#45;MAT</text>
</g>
<!-- n1 -->
<g id="node2" class="node">
<title>n1</title>
<path fill="none" stroke="#6b7280" d="M120,-120C120,-120 78,-120 78,-120 75,-120 72,-117 72,-114 72,-114 72,-108 72,-108 72,-105 75,-102 78,-102 78,-102 120,-102 120,-102 123,-102 126,-105 126,-108 126,-108 126,-114 126,-114 126,-117 123,-120 120,-120"/>
<text text-anchor="middle" x="99" y="-108.2" font-family="DejaVu Sans" font-size="11.00">NP&#45;SBJ</text>
</g>
<!-- n0&#45;&gt;n1 -->
<g id="edge5" class="edge">
<title>n0&#45;&gt;n1</title>
<path fill="none" stroke="#9ca3af" stroke-width="1.1" d="M126.92,-143.91C120.94,-137.07 112.41,-127.33 106.36,-120.41"/>
<polygon fill="#9ca3af" stroke="#9ca3af" stroke-width="1.1" points="106.07,-120.08 106.07,-120.08 106.07,-120.08 106.07,-120.08"/>
</g>
<!-- n6 -->
<g id="node7" class="node">
<title>n6</title>
<path fill="none" stroke="#6b7280" d="M193,-120C193,-120 151,-120 151,-120 148,-120 145,-117 145,-114 145,-114 145,-108 145,-108 145,-105 148,-102 151,-102 151,-102 193,-102 193,-102 196,-102 199,-105 199,-108 199,-108 199,-114 199,-114 199,-117 196,-120 193,-120"/>
<text text-anchor="middle" x="172" y="-108.2" font-family="DejaVu Sans" font-size="11.00">NP&#45;PRD</text>
</g>
<!-- n0&#45;&gt;n6 -->
<g id="edge8" class="edge">
<title>n0&#45;&gt;n6</title>
<path fill="none" stroke="#9ca3af" stroke-width="1.1" d="M141.69,-143.91C148.18,-137.07 157.44,-127.33 164.01,-120.41"/>
<polygon fill="#9ca3af" stroke="#9ca3af" stroke-width="1.1" points="164.32,-120.08 164.32,-120.08 164.32,-120.08 164.32,-120.08"/>
</g>
<!-- n2 -->
<g id="node3" class="node">
<title>n2</title>
<path fill="none" stroke="#6b7280" d="M49,-78C49,-78 7,-78 7,-78 4,-78 1,-75 1,-72 1,-72 1,-66 1,-66 1,-63 4,-60 7,-60 7,-60 49,-60 49,-60 52,-60 55,-63 55,-66 55,-66 55,-72 55,-72 55,-75 52,-78 49,-78"/>
<text text-anchor="middle" x="28" y="-66.2" font-family="DejaVu Sans" font-size="11.00">D</text>
</g>
<!-- n1&#45;&gt;n2 -->
<g id="edge2" class="edge">
<title>n1&#45;&gt;n2</title>
<path fill="none" stroke="#9ca3af" stroke-width="1.1" d="M84.63,-101.91C72.41,-95.02 54.93,-85.17 42.64,-78.25"/>
<polygon fill="#9ca3af" stroke="#9ca3af" stroke-width="1.1" points="42.35,-78.08 42.35,-78.08 42.35,-78.08 42.35,-78.08"/>
</g>
<!-- n4 -->
<g id="node5" class="node">
<title>n4</title>
<path fill="none" stroke="#6b7280" d="M120,-78C120,-78 78,-78 78,-78 75,-78 72,-75 72,-72 72,-72 72,-66 72,-66 72,-63 75,-60 78,-60 78,-60 120,-60 120,-60 123,-60 126,-63 126,-66 126,-66 126,-72 126,-72 126,-75 123,-78 120,-78"/>
<text text-anchor="middle" x="99" y="-66.2" font-family="DejaVu Sans" font-size="11.00">N</text>
</g>
<!-- n1&#45;&gt;n4 -->
<g id="edge4" class="edge">
<title>n1&#45;&gt;n4</title>
<path fill="none" stroke="#9ca3af" stroke-width="1.1" d="M99,-101.91C99,-95.07 99,-85.33 99,-78.41"/>
<polygon fill="#9ca3af" stroke="#9ca3af" stroke-width="1.1" points="99,-78.08 99,-78.08 99,-78.08 99,-78.08"/>
</g>
<!-- n3 -->
<g id="node4" class="node">
<title>n3</title>
<text text-anchor="middle" x="27" y="-15.2" font-family="DejaVu Sans Bold" font-size="11.00" fill="#111827">ica</text>
</g>
<!-- n2&#45;&gt;n3 -->
<g id="edge1" class="edge">
<title>n2&#45;&gt;n3</title>
<path fill="none" stroke="#9ca3af" stroke-width="1.1" d="M27.83,-59.91C27.71,-53.59 27.52,-44.59 27.36,-36.63"/>
<polygon fill="#9ca3af" stroke="#9ca3af" stroke-width="1.1" points="27.35,-36.25 27.35,-36.25 27.35,-36.25 27.35,-36.25"/>
</g>
<!-- n5 -->
<g id="node6" class="node">
<title>n5</title>
<text text-anchor="middle" x="99" y="-15.2" font-family="DejaVu Sans Bold" font-size="11.00" fill="#111827">niwigo</text>
</g>
<!-- n4&#45;&gt;n5 -->
<g id="edge3" class="edge">
<title>n4&#45;&gt;n5</title>
<path fill="none" stroke="#9ca3af" stroke-width="1.1" d="M99,-59.91C99,-53.59 99,-44.59 99,-36.63"/>
<polygon fill="#9ca3af" stroke="#9ca3af" stroke-width="1.1" points="99,-36.25 99,-36.25 99,-36.25 99,-36.25"/>
</g>
<!-- n7 -->
<g id="node8" class="node">
<title>n7</title>
<path fill="none" stroke="#6b7280" d="M199,-78C199,-78 157,-78 157,-78 154,-78 151,-75 151,-72 151,-72 151,-66 151,-66 151,-63 154,-60 157,-60 157,-60 199,-60 199,-60 202,-60 205,-63 205,-66 205,-66 205,-72 205,-72 205,-75 202,-78 199,-78"/>
<text text-anchor="middle" x="178" y="-66.2" font-family="DejaVu Sans" font-size="11.00">N$</text>
</g>
<!-- n6&#45;&gt;n7 -->
<g id="edge7" class="edge">
<title>n6&#45;&gt;n7</title>
<path fill="none" stroke="#9ca3af" stroke-width="1.1" d="M173.21,-101.91C174.24,-95.07 175.7,-85.33 176.74,-78.41"/>
<polygon fill="#9ca3af" stroke="#9ca3af" stroke-width="1.1" points="176.79,-78.08 176.79,-78.08 176.79,-78.08 176.79,-78.08"/>
</g>
<!-- n8 -->
<g id="node9" class="node">
<title>n8</title>
<text text-anchor="middle" x="182" y="-15.2" font-family="DejaVu Sans Bold" font-size="11.00" fill="#111827">libinienigi</text>
</g>
<!-- n7&#45;&gt;n8 -->
<g id="edge6" class="edge">
<title>n7&#45;&gt;n8</title>
<path fill="none" stroke="#9ca3af" stroke-width="1.1" d="M178.66,-59.91C179.18,-53.59 179.91,-44.59 180.56,-36.63"/>
<polygon fill="#9ca3af" stroke="#9ca3af" stroke-width="1.1" points="180.59,-36.25 180.59,-36.25 180.59,-36.25 180.59,-36.25"/>
</g>
</g>
</svg>
