<?xml version="1.0" encoding="UTF-8" standalone="no"?>
<!DOCTYPE svg PUBLIC "-//W3C//DTD SVG 1.1//EN"
 "http://www.w3.org/Graphics/SVG/1.1/DTD/svg11.dtd">
<!-- Generated by graphviz version 2.43.0 (0)
 -->
<!-- Title: tree Pages: 1 -->
<svg width="293pt" height="200pt"
 viewBox="5.76 5.76 287.26 193.76" xmlns="http://www.w3.org/2000/svg" xmlns:xlink="http://www.w3.org/1999/xlink">
<g id="graph0" class="graph" transform="scale(1 1) rotate(0) translate(9.76 189.76)">
<title>tree</title>
<polygon fill="white" stroke="transparent" points="-4,4 -4,-184 277.5,-184 277.5,4 -4,4"/>
<!-- n0 -->
<g id="node1" class="node">
<title>n0</title>
<path fill="none" stroke="#6b7280" d="M176.5,-180C176.5,-180 134.5,-180 134.5,-180 131.5,-180 128.5,-177 128.5,-174 128.5,-174 128.5,-168 128.5,-168 128.5,-165 131.5,-162 134.5,-162 134.5,-162 176.5,-162 176.5,-162 179.5,-162 182.5,-165 182.5,-168 182.5,-168 182.5,-174 182.5,-174 182.5,-177 179.5,-180 176.5,-180"/>
<text text-anchor="middle" x="155.5" y="-168.2" font-family="DejaVu Sans" font-size="11.00">IP&#45;MAT</text>
</g>
<!-- n1 -->
<g id="node2" class="node">
<title>n1</title>
<path fill="none" stroke="#6b7280" d="M89.5,-138C89.5,-138 47.5,-138 47.5,-138 44.5,-138 41.5,-135 41.5,-132 41.5,-132 41.5,-126 41.5,-126 41.5,-123 44.5,-120 47.5,-120 47.5,-120 89.5,-120 89.5,-120 92.5,-120 95.5,-123 95.5,-126 95.5,-126 95.5,-132 95.5,-132 95.5,-135 92.5,-138 89.5,-138"/>
<text text-anchor="middle" x="68.5" y="-126.2" font-family="DejaVu Sans" font-size="11.00">NP&#45;SBJ</text>
</g>
<!-- n0&#45;&gt;n1 -->
<g id="edge3" class="edge">
<title>n0&#45;&gt;n1</title>
<path fill="none" stroke="#9ca3af" stroke-width="1.1" d="M137.89,-161.91C122.92,-155.02 101.5,-145.17 86.43,-138.25"/>
<polygon fill="#9ca3af" stroke="#9ca3af" stroke-width="1.1" points="86.08,-138.08 86.08,-138.08 86.08,-138.08 86.08,-138.08"/>
</g>
<!-- n4 -->
<g id="node5" class="node">
<title>n4</title>
<path fill="none" stroke="#6b7280" d="M176.5,-138C176.5,-138 134.5,-138 134.5,-138 131.5,-138 128.5,-135 128.5,-132 128.5,-132 128.5,-126 128.5,-126 128.5,-123 131.5,-120 134.5,-120 134.5,-120 176.5,-120 176.5,-120 179.5,-120 182.5,-123 182.5,-126 182.5,-126 182.5,-132 182.5,-132 182.5,-135 179.5,-138 176.5,-138"/>
<text text-anchor="middle" x="155.5" y="-126.2" font-family="DejaVu Sans" font-size="11.00">NP&#45;PRD</text>
</g>
<!-- n0&#45;&gt;n4 -->
<g id="edge8" class="edge">
<title>n0&#45;&gt;n4</title>
<path fill="none" stroke="#9ca3af" stroke-width="1.1" d="M155.5,-161.91C155.5,-155.07 155.5,-145.33 155.5,-138.41"/>
<polygon fill="#9ca3af" stroke="#9ca3af" stroke-width="1.1" points="155.5,-138.08 155.5,-138.08 155.5,-138.08 155.5,-138.08"/>
</g>
<!-- n9 -->
<g id="node10" class="node">
<title>n9</title>
<path fill="none" stroke="#6b7280" d="M255.5,-138C255.5,-138 213.5,-138 213.5,-138 210.5,-138 207.5,-135 207.5,-132 207.5,-132 207.5,-126 207.5,-126 207.5,-123 210.5,-120 213.5,-120 213.5,-120 255.5,-120 255.5,-120 258.5,-120 261.5,-123 261.5,-126 261.5,-126 261.5,-132 261.5,-132 261.5,-135 258.5,-138 255.5,-138"/>
<text text-anchor="middle" x="234.5" y="-126.2" font-family="DejaVu Sans" font-size="11.00">PUNC</text>
</g>
<!-- n0&#45;&gt;n9 -->
<g id="edge10" class="edge">
<title>n0&#45;&gt;n9</title>
<path fill="none" stroke="#9ca3af" stroke-width="1.1" d="M171.49,-161.91C185.09,-155.02 204.53,-145.17 218.21,-138.25"/>
<polygon fill="#9ca3af" stroke="#9ca3af" stroke-width="1.1" points="218.54,-138.08 218.54,-138.08 218.54,-138.08 218.54,-138.08"/>
</g>
<!-- n2 -->
<g id="node3" class="node">
<title>n2</title>
<path fill="none" stroke="#6b7280" d="M54.5,-87C54.5,-87 12.5,-87 12.5,-87 9.5,-87 6.5,-84 6.5,-81 6.5,-81 6.5,-75 6.5,-75 6.5,-72 9.5,-69 12.5,-69 12.5,-69 54.5,-69 54.5,-69 57.5,-69 60.5,-72 60.5,-75 60.5,-75 60.5,-81 60.5,-81 60.5,-84 57.5,-87 54.5,-87"/>
<text text-anchor="middle" x="33.5" y="-75.2" font-family="DejaVu Sans" font-size="11.00">N$</text>
</g>
<!-- n1&#45;&gt;n2 -->
<g id="edge2" class="edge">
<title>n1&#45;&gt;n2</title>
<path fill="none" stroke="#9ca3af" stroke-width="1.1" d="M62.72,-119.91C56.38,-111.03 46.22,-96.81 39.71,-87.7"/>
<polygon fill="#9ca3af" stroke="#9ca3af" stroke-width="1.1" points="39.41,-87.27 39.41,-87.27 39.41,-87.27 39.41,-87.27"/>
</g>
<!-- n3 -->
<g id="node4" class="node">
<title>n3</title>
<text text-anchor="middle" x="29.5" y="-15.2" font-family="DejaVu Sans Bold" font-size="11.00" fill="#111827">iGeladi</text>
</g>
<!-- n2&#45;&gt;n3 -->
<g id="edge1" class="edge">
<title>n2&#45;&gt;n3</title>
<path fill="none" stroke="#9ca3af" stroke-width="1.1" d="M32.94,-68.94C32.36,-60.54 31.44,-47.12 30.69,-36.3"/>
<polygon fill="#9ca3af" stroke="#9ca3af" stroke-width="1.1" points="30.68,-36.05 30.68,-36.05 30.68,-36.05 30.68,-36.05"/>
</g>
<!-- n5 -->
<g id="node6" class="node">
<title>n5</title>
<path fill="none" stroke="#6b7280" d="M127.5,-87C127.5,-87 85.5,-87 85.5,-87 82.5,-87 79.5,-84 79.5,-81 79.5,-81 79.5,-75 79.5,-75 79.5,-72 82.5,-69 85.5,-69 85.5,-69 127.5,-69 127.5,-69 130.5,-69 133.5,-72 133.5,-75 133.5,-75 133.5,-81 133.5,-81 133.5,-84 130.5,-87 127.5,-87"/>
<text text-anchor="middle" x="106.5" y="-75.2" font-family="DejaVu Sans" font-size="11.00">D</text>
</g>
<!-- n4&#45;&gt;n5 -->
<g id="edge5" class="edge">
<title>n4&#45;&gt;n5</title>
<path fill="none" stroke="#9ca3af" stroke-width="1.1" d="M147.41,-119.91C138.53,-111.03 124.31,-96.81 115.2,-87.7"/>
<polygon fill="#9ca3af" stroke="#9ca3af" stroke-width="1.1" points="114.77,-87.27 114.77,-87.27 114.77,-87.27 114.77,-87.27"/>
</g>
<!-- n7 -->
<g id="node8" class="node">
<title>n7</title>
<path fill="none" stroke="#6b7280" d="M197.5,-87C197.5,-87 155.5,-87 155.5,-87 152.5,-87 149.5,-84 149.5,-81 149.5,-81 149.5,-75 149.5,-75 149.5,-72 152.5,-69 155.5,-69 155.5,-69 197.5,-69 197.5,-69 200.5,-69 203.5,-72 203.5,-75 203.5,-75 203.5,-81 203.5,-81 203.5,-84 200.5,-87 197.5,-87"/>
<text text-anchor="middle" x="176.5" y="-75.2" font-family="DejaVu Sans" font-size="11.00">N</text>
</g>
<!-- n4&#45;&gt;n7 -->
<g id="edge7" class="edge">
<title>n4&#45;&gt;n7</title>
<path fill="none" stroke="#9ca3af" stroke-width="1.1" d="M158.97,-119.91C162.77,-111.03 168.87,-96.81 172.77,-87.7"/>
<polygon fill="#9ca3af" stroke="#9ca3af" stroke-width="1.1" points="172.96,-87.27 172.96,-87.27 172.96,-87.27 172.96,-87.27"/>
</g>
<!-- n6 -->
<g id="node7" class="node">
<title>n6</title>
<text text-anchor="middle" x="106.5" y="-15.2" font-family="DejaVu Sans Bold" font-size="11.00" fill="#111827">digoida</text>
</g>
<!-- n5&#45;&gt;n6 -->
<g id="edge4" class="edge">
<title>n5&#45;&gt;n6</title>
<path fill="none" stroke="#9ca3af" stroke-width="1.1" d="M106.5,-68.94C106.5,-60.54 106.5,-47.12 106.5,-36.3"/>
<polygon fill="#9ca3af" stroke="#9ca3af" stroke-width="1.1" points="106.5,-36.05 106.5,-36.05 106.5,-36.05 106.5,-36.05"/>
</g>
<!-- n8 -->
<g id="node9" class="node">
<title>n8</title>
<text text-anchor="middle" x="180.5" y="-15.2" font-family="DejaVu Sans Bold" font-size="11.00" fill="#111827">weiigi</text>
</g>
<!-- n7&#45;&gt;n8 -->
<g id="edge6" class="edge">
<title>n7&#45;&gt;n8</title>
<path fill="none" stroke="#9ca3af" stroke-width="1.1" d="M177.06,-68.94C177.64,-60.54 178.56,-47.12 179.31,-36.3"/>
<polygon fill="#9ca3af" stroke="#9ca3af" stroke-width="1.1" points="179.32,-36.05 179.32,-36.05 179.32,-36.05 179.32,-36.05"/>
</g>
<!-- n10 -->
<g id="node11" class="node">
<title>n10</title>
<text text-anchor="middle" x="246.5" y="-75.2" font-family="DejaVu Sans Bold" font-size="11.00" fill="#111827">.</text>
</g>
<!-- n9&#45;&gt;n10 -->
<g id="edge9" class="edge">
<title>n9&#45;&gt;n10</title>
<path fill="none" stroke="#9ca3af" stroke-width="1.1" d="M236.48,-119.91C238.03,-113.59 240.23,-104.59 242.18,-96.63"/>
<polygon fill="#9ca3af" stroke="#9ca3af" stroke-width="1.1" points="242.27,-96.25 242.27,-96.25 242.27,-96.25 242.27,-96.25"/>
</g>
</g>
</svg>
