<?xml version="1.0" encoding="UTF-8" standalone="no"?>
<!DOCTYPE svg PUBLIC "-//W3C//DTD SVG 1.1//EN"
 "http://www.w3.org/Graphics/SVG/1.1/DTD/svg11.dtd">
<!-- Generated by graphviz version 2.43.0 (0)
 -->
<!-- Title: tree Pages: 1 -->
<svg width="268pt" height="344pt"
 viewBox="5.76 5.76 261.76 337.76" xmlns="http://www.w3.org/2000/svg" xmlns:xlink="http://www.w3.org/1999/xlink">
<g id="graph0" class="graph" transform="scale(1 1) rotate(0) translate(9.76 333.76)">
<title>tree</title>
<polygon fill="white" stroke="transparent" points="-4,4 -4,-328 252,-328 252,4 -4,4"/>
<!-- n0 -->
<g id="node1" class="node">
<title>n0</title>
<path fill="none" stroke="#6b7280" d="M83,-324C83,-324 41,-324 41,-324 38,-324 35,-321 35,-318 35,-318 35,-312 35,-312 35,-309 38,-306 41,-306 41,-306 83,-306 83,-306 86,-306 89,-309 89,-312 89,-312 89,-318 89,-318 89,-321 86,-324 83,-324"/>
<text text-anchor="middle" x="62" y="-312.2" font-family="DejaVu Sans" font-size="11.00">IP&#45;MAT</text>
</g>
<!-- n1 -->
<g id="node2" class="node">
<title>n1</title>
<path fill="none" stroke="#6b7280" d="M48,-282C48,-282 6,-282 6,-282 3,-282 0,-279 0,-276 0,-276 0,-270 0,-270 0,-267 3,-264 6,-264 6,-264 48,-264 48,-264 51,-264 54,-267 54,-270 54,-270 54,-276 54,-276 54,-279 51,-282 48,-282"/>
<text text-anchor="middle" x="27" y="-270.2" font-family="DejaVu Sans" font-size="11.00">NP</text>
</g>
<!-- n0&#45;&gt;n1 -->
<g id="edge3" class="edge">
<title>n0&#45;&gt;n1</title>
<path fill="none" stroke="#9ca3af" stroke-width="1.1" d="M54.92,-305.91C48.94,-299.07 40.41,-289.33 34.36,-282.41"/>
<polygon fill="#9ca3af" stroke="#9ca3af" stroke-width="1.1" points="34.07,-282.08 34.07,-282.08 34.07,-282.08 34.07,-282.08"/>
</g>
<!-- n4 -->
<g id="node5" class="node">
<title>n4</title>
<path fill="none" stroke="#6b7280" d="M118,-282C118,-282 76,-282 76,-282 73,-282 70,-279 70,-276 70,-276 70,-270 70,-270 70,-267 73,-264 76,-264 76,-264 118,-264 118,-264 121,-264 124,-267 124,-270 124,-270 124,-276 124,-276 124,-279 121,-282 118,-282"/>
<text text-anchor="middle" x="97" y="-270.2" font-family="DejaVu Sans" font-size="11.00">CP</text>
</g>
<!-- n0&#45;&gt;n4 -->
<g id="edge13" class="edge">
<title>n0&#45;&gt;n4</title>
<path fill="none" stroke="#9ca3af" stroke-width="1.1" d="M69.08,-305.91C75.06,-299.07 83.59,-289.33 89.64,-282.41"/>
<polygon fill="#9ca3af" stroke="#9ca3af" stroke-width="1.1" points="89.93,-282.08 89.93,-282.08 89.93,-282.08 89.93,-282.08"/>
</g>
<!-- n2 -->
<g id="node3" class="node">
<title>n2</title>
<path fill="none" stroke="#6b7280" d="M48,-240C48,-240 6,-240 6,-240 3,-240 0,-237 0,-234 0,-234 0,-228 0,-228 0,-225 3,-222 6,-222 6,-222 48,-222 48,-222 51,-222 54,-225 54,-228 54,-228 54,-234 54,-234 54,-237 51,-240 48,-240"/>
<text text-anchor="middle" x="27" y="-228.2" font-family="DejaVu Sans" font-size="11.00">PRO</text>
</g>
<!-- n1&#45;&gt;n2 -->
<g id="edge2" class="edge">
<title>n1&#45;&gt;n2</title>
<path fill="none" stroke="#9ca3af" stroke-width="1.1" d="M27,-263.91C27,-257.07 27,-247.33 27,-240.41"/>
<polygon fill="#9ca3af" stroke="#9ca3af" stroke-width="1.1" points="27,-240.08 27,-240.08 27,-240.08 27,-240.08"/>
</g>
<!-- n3 -->
<g id="node4" class="node">
<title>n3</title>
<text text-anchor="middle" x="27" y="-177.2" font-family="DejaVu Sans Bold" font-size="11.00" fill="#111827">Eyo</text>
</g>
<!-- n2&#45;&gt;n3 -->
<g id="edge1" class="edge">
<title>n2&#45;&gt;n3</title>
<path fill="none" stroke="#9ca3af" stroke-width="1.1" d="M27,-221.91C27,-215.59 27,-206.59 27,-198.63"/>
<polygon fill="#9ca3af" stroke="#9ca3af" stroke-width="1.1" points="27,-198.25 27,-198.25 27,-198.25 27,-198.25"/>
</g>
<!-- n5 -->
<g id="node6" class="node">
<title>n5</title>
<path fill="none" stroke="#6b7280" d="M118,-240C118,-240 76,-240 76,-240 73,-240 70,-237 70,-234 70,-234 70,-228 70,-228 70,-225 73,-222 76,-222 76,-222 118,-222 118,-222 121,-222 124,-225 124,-228 124,-228 124,-234 124,-234 124,-237 121,-240 118,-240"/>
<text text-anchor="middle" x="97" y="-228.2" font-family="DejaVu Sans" font-size="11.00">CP&#45;me</text>
</g>
<!-- n4&#45;&gt;n5 -->
<g id="edge12" class="edge">
<title>n4&#45;&gt;n5</title>
<path fill="none" stroke="#9ca3af" stroke-width="1.1" d="M97,-263.91C97,-257.07 97,-247.33 97,-240.41"/>
<polygon fill="#9ca3af" stroke="#9ca3af" stroke-width="1.1" points="97,-240.08 97,-240.08 97,-240.08 97,-240.08"/>
</g>
<!-- n6 -->
<g id="node7" class="node">
<title>n6</title>
<path fill="none" stroke="#6b7280" d="M118,-189C118,-189 76,-189 76,-189 73,-189 70,-186 70,-183 70,-183 70,-177 70,-177 70,-174 73,-171 76,-171 76,-171 118,-171 118,-171 121,-171 124,-174 124,-177 124,-177 124,-183 124,-183 124,-186 121,-189 118,-189"/>
<text text-anchor="middle" x="97" y="-177.2" font-family="DejaVu Sans" font-size="11.00">C</text>
</g>
<!-- n5&#45;&gt;n6 -->
<g id="edge5" class="edge">
<title>n5&#45;&gt;n6</title>
<path fill="none" stroke="#9ca3af" stroke-width="1.1" d="M97,-221.91C97,-213.03 97,-198.81 97,-189.7"/>
<polygon fill="#9ca3af" stroke="#9ca3af" stroke-width="1.1" points="97,-189.27 97,-189.27 97,-189.27 97,-189.27"/>
</g>
<!-- n8 -->
<g id="node9" class="node">
<title>n8</title>
<path fill="none" stroke="#6b7280" d="M188,-189C188,-189 146,-189 146,-189 143,-189 140,-186 140,-183 140,-183 140,-177 140,-177 140,-174 143,-171 146,-171 146,-171 188,-171 188,-171 191,-171 194,-174 194,-177 194,-177 194,-183 194,-183 194,-186 191,-189 188,-189"/>
<text text-anchor="middle" x="167" y="-177.2" font-family="DejaVu Sans" font-size="11.00">IP&#45;SUB</text>
</g>
<!-- n5&#45;&gt;n8 -->
<g id="edge11" class="edge">
<title>n5&#45;&gt;n8</title>
<path fill="none" stroke="#9ca3af" stroke-width="1.1" d="M108.56,-221.91C121.35,-212.95 141.87,-198.59 154.88,-189.48"/>
<polygon fill="#9ca3af" stroke="#9ca3af" stroke-width="1.1" points="155.19,-189.27 155.19,-189.27 155.19,-189.27 155.19,-189.27"/>
</g>
<!-- n7 -->
<g id="node8" class="node">
<title>n7</title>
<text text-anchor="middle" x="97" y="-117.2" font-family="DejaVu Sans Bold" font-size="11.00" fill="#111827">me@</text>
</g>
<!-- n6&#45;&gt;n7 -->
<g id="edge4" class="edge">
<title>n6&#45;&gt;n7</title>
<path fill="none" stroke="#9ca3af" stroke-width="1.1" d="M97,-170.94C97,-162.54 97,-149.12 97,-138.3"/>
<polygon fill="#9ca3af" stroke="#9ca3af" stroke-width="1.1" points="97,-138.05 97,-138.05 97,-138.05 97,-138.05"/>
</g>
<!-- n9 -->
<g id="node10" class="node">
<title>n9</title>
<path fill="none" stroke="#6b7280" d="M188,-129C188,-129 146,-129 146,-129 143,-129 140,-126 140,-123 140,-123 140,-117 140,-117 140,-114 143,-111 146,-111 146,-111 188,-111 188,-111 191,-111 194,-114 194,-117 194,-117 194,-123 194,-123 194,-126 191,-129 188,-129"/>
<text text-anchor="middle" x="167" y="-117.2" font-family="DejaVu Sans" font-size="11.00">NP</text>
</g>
<!-- n8&#45;&gt;n9 -->
<g id="edge10" class="edge">
<title>n8&#45;&gt;n9</title>
<path fill="none" stroke="#9ca3af" stroke-width="1.1" d="M167,-170.94C167,-160.06 167,-140.79 167,-129.63"/>
<polygon fill="#9ca3af" stroke="#9ca3af" stroke-width="1.1" points="167,-129.37 167,-129.37 167,-129.37 167,-129.37"/>
</g>
<!-- n10 -->
<g id="node11" class="node">
<title>n10</title>
<path fill="none" stroke="#6b7280" d="M148,-78C148,-78 106,-78 106,-78 103,-78 100,-75 100,-72 100,-72 100,-66 100,-66 100,-63 103,-60 106,-60 106,-60 148,-60 148,-60 151,-60 154,-63 154,-66 154,-66 154,-72 154,-72 154,-75 151,-78 148,-78"/>
<text text-anchor="middle" x="127" y="-66.2" font-family="DejaVu Sans" font-size="11.00">DAPL</text>
</g>
<!-- n9&#45;&gt;n10 -->
<g id="edge7" class="edge">
<title>n9&#45;&gt;n10</title>
<path fill="none" stroke="#9ca3af" stroke-width="1.1" d="M160.39,-110.91C153.14,-102.03 141.54,-87.81 134.1,-78.7"/>
<polygon fill="#9ca3af" stroke="#9ca3af" stroke-width="1.1" points="133.75,-78.27 133.75,-78.27 133.75,-78.27 133.75,-78.27"/>
</g>
<!-- n12 -->
<g id="node13" class="node">
<title>n12</title>
<path fill="none" stroke="#6b7280" d="M228,-78C228,-78 186,-78 186,-78 183,-78 180,-75 180,-72 180,-72 180,-66 180,-66 180,-63 183,-60 186,-60 186,-60 228,-60 228,-60 231,-60 234,-63 234,-66 234,-66 234,-72 234,-72 234,-75 231,-78 228,-78"/>
<text text-anchor="middle" x="207" y="-66.2" font-family="DejaVu Sans" font-size="11.00">N</text>
</g>
<!-- n9&#45;&gt;n12 -->
<g id="edge9" class="edge">
<title>n9&#45;&gt;n12</title>
<path fill="none" stroke="#9ca3af" stroke-width="1.1" d="M173.61,-110.91C180.86,-102.03 192.46,-87.81 199.9,-78.7"/>
<polygon fill="#9ca3af" stroke="#9ca3af" stroke-width="1.1" points="200.25,-78.27 200.25,-78.27 200.25,-78.27 200.25,-78.27"/>
</g>
<!-- n11 -->
<g id="node12" class="node">
<title>n11</title>
<text text-anchor="middle" x="122" y="-15.2" font-family="DejaVu Sans Bold" font-size="11.00" fill="#111827">@anitaGa</text>
</g>
<!-- n10&#45;&gt;n11 -->
<g id="edge6" class="edge">
<title>n10&#45;&gt;n11</title>
<path fill="none" stroke="#9ca3af" stroke-width="1.1" d="M126.17,-59.91C125.53,-53.59 124.61,-44.59 123.8,-36.63"/>
<polygon fill="#9ca3af" stroke="#9ca3af" stroke-width="1.1" points="123.76,-36.25 123.76,-36.25 123.76,-36.25 123.76,-36.25"/>
</g>
<!-- n13 -->
<g id="node14" class="node">
<title>n13</title>
<text text-anchor="middle" x="212" y="-15.2" font-family="DejaVu Sans Bold" font-size="11.00" fill="#111827">nigotaGa</text>
</g>
<!-- n12&#45;&gt;n13 -->
<g id="edge8" class="edge">
<title>n12&#45;&gt;n13</title>
<path fill="none" stroke="#9ca3af" stroke-width="1.1" d="M207.83,-59.91C208.47,-53.59 209.39,-44.59 210.2,-36.63"/>
<polygon fill="#9ca3af" stroke="#9ca3af" stroke-width="1.1" points="210.24,-36.25 210.24,-36.25 210.24,-36.25 210.24,-36.25"/>
</g>
</g>
</svg>
