<?xml version="1.0" encoding="UTF-8" standalone="no"?>
<!DOCTYPE svg PUBLIC "-//W3C//DTD SVG 1.1//EN"
 "http://www.w3.org/Graphics/SVG/1.1/DTD/svg11.dtd">
<!-- Generated by graphviz version 2.43.0 (0)
 -->
<!-- Title: tree Pages: 1 -->
<svg width="402pt" height="302pt"
 viewBox="5.76 5.76 395.76 295.76" xmlns="http://www.w3.org/2000/svg" xmlns:xlink="http://www.w3.org/1999/xlink">
<g id="graph0" class="graph" transform="scale(1 1) rotate(0) translate(9.76 291.76)">
<title>tree</title>
<polygon fill="white" stroke="transparent" points="-4,4 -4,-286 386,-286 386,4 -4,4"/>
<!-- n0 -->
<g id="node1" class="node">
<title>n0</title>
<path fill="none" stroke="#6b7280" d="M309,-282C309,-282 267,-282 267,-282 264,-282 261,-279 261,-276 261,-276 261,-270 261,-270 261,-267 264,-264 267,-264 267,-264 309,-264 309,-264 312,-264 315,-267 315,-270 315,-270 315,-276 315,-276 315,-279 312,-282 309,-282"/>
<text text-anchor="middle" x="288" y="-270.2" font-family="DejaVu Sans" font-size="11.00">IP&#45;MAT</text>
</g>
<!-- n1 -->
<g id="node2" class="node">
<title>n1</title>
<path fill="none" stroke="#6b7280" d="M274,-240C274,-240 232,-240 232,-240 229,-240 226,-237 226,-234 226,-234 226,-228 226,-228 226,-225 229,-222 232,-222 232,-222 274,-222 274,-222 277,-222 280,-225 280,-228 280,-228 280,-234 280,-234 280,-237 277,-240 274,-240"/>
<text text-anchor="middle" x="253" y="-228.2" font-family="DejaVu Sans" font-size="11.00">NP&#45;SBJ</text>
</g>
<!-- n0&#45;&gt;n1 -->
<g id="edge11" class="edge">
<title>n0&#45;&gt;n1</title>
<path fill="none" stroke="#9ca3af" stroke-width="1.1" d="M280.92,-263.91C274.94,-257.07 266.41,-247.33 260.36,-240.41"/>
<polygon fill="#9ca3af" stroke="#9ca3af" stroke-width="1.1" points="260.07,-240.08 260.07,-240.08 260.07,-240.08 260.07,-240.08"/>
</g>
<!-- n12 -->
<g id="node13" class="node">
<title>n12</title>
<path fill="none" stroke="#6b7280" d="M348,-240C348,-240 306,-240 306,-240 303,-240 300,-237 300,-234 300,-234 300,-228 300,-228 300,-225 303,-222 306,-222 306,-222 348,-222 348,-222 351,-222 354,-225 354,-228 354,-228 354,-234 354,-234 354,-237 351,-240 348,-240"/>
<text text-anchor="middle" x="327" y="-228.2" font-family="DejaVu Sans" font-size="11.00">NP&#45;PRD</text>
</g>
<!-- n0&#45;&gt;n12 -->
<g id="edge14" class="edge">
<title>n0&#45;&gt;n12</title>
<path fill="none" stroke="#9ca3af" stroke-width="1.1" d="M295.89,-263.91C302.55,-257.07 312.05,-247.33 318.8,-240.41"/>
<polygon fill="#9ca3af" stroke="#9ca3af" stroke-width="1.1" points="319.12,-240.08 319.12,-240.08 319.12,-240.08 319.12,-240.08"/>
</g>
<!-- n2 -->
<g id="node3" class="node">
<title>n2</title>
<path fill="none" stroke="#6b7280" d="M169,-198C169,-198 127,-198 127,-198 124,-198 121,-195 121,-192 121,-192 121,-186 121,-186 121,-183 124,-180 127,-180 127,-180 169,-180 169,-180 172,-180 175,-183 175,-186 175,-186 175,-192 175,-192 175,-195 172,-198 169,-198"/>
<text text-anchor="middle" x="148" y="-186.2" font-family="DejaVu Sans" font-size="11.00">NP</text>
</g>
<!-- n1&#45;&gt;n2 -->
<g id="edge8" class="edge">
<title>n1&#45;&gt;n2</title>
<path fill="none" stroke="#9ca3af" stroke-width="1.1" d="M231.75,-221.91C213.68,-215.02 187.83,-205.17 169.64,-198.25"/>
<polygon fill="#9ca3af" stroke="#9ca3af" stroke-width="1.1" points="169.22,-198.08 169.22,-198.08 169.22,-198.08 169.22,-198.08"/>
</g>
<!-- n10 -->
<g id="node11" class="node">
<title>n10</title>
<path fill="none" stroke="#6b7280" d="M274,-198C274,-198 232,-198 232,-198 229,-198 226,-195 226,-192 226,-192 226,-186 226,-186 226,-183 229,-180 232,-180 232,-180 274,-180 274,-180 277,-180 280,-183 280,-186 280,-186 280,-192 280,-192 280,-195 277,-198 274,-198"/>
<text text-anchor="middle" x="253" y="-186.2" font-family="DejaVu Sans" font-size="11.00">N$</text>
</g>
<!-- n1&#45;&gt;n10 -->
<g id="edge10" class="edge">
<title>n1&#45;&gt;n10</title>
<path fill="none" stroke="#9ca3af" stroke-width="1.1" d="M253,-221.91C253,-215.07 253,-205.33 253,-198.41"/>
<polygon fill="#9ca3af" stroke="#9ca3af" stroke-width="1.1" points="253,-198.08 253,-198.08 253,-198.08 253,-198.08"/>
</g>
<!-- n3 -->
<g id="node4" class="node">
<title>n3</title>
<path fill="none" stroke="#6b7280" d="M60,-147C60,-147 18,-147 18,-147 15,-147 12,-144 12,-141 12,-141 12,-135 12,-135 12,-132 15,-129 18,-129 18,-129 60,-129 60,-129 63,-129 66,-132 66,-135 66,-135 66,-141 66,-141 66,-144 63,-147 60,-147"/>
<text text-anchor="middle" x="39" y="-135.2" font-family="DejaVu Sans" font-size="11.00">D</text>
</g>
<!-- n2&#45;&gt;n3 -->
<g id="edge2" class="edge">
<title>n2&#45;&gt;n3</title>
<path fill="none" stroke="#9ca3af" stroke-width="1.1" d="M130,-179.91C109.96,-170.9 77.74,-156.42 57.5,-147.32"/>
<polygon fill="#9ca3af" stroke="#9ca3af" stroke-width="1.1" points="57.03,-147.1 57.03,-147.1 57.03,-147.1 57.03,-147.1"/>
</g>
<!-- n5 -->
<g id="node6" class="node">
<title>n5</title>
<path fill="none" stroke="#6b7280" d="M134,-147C134,-147 92,-147 92,-147 89,-147 86,-144 86,-141 86,-141 86,-135 86,-135 86,-132 89,-129 92,-129 92,-129 134,-129 134,-129 137,-129 140,-132 140,-135 140,-135 140,-141 140,-141 140,-144 137,-147 134,-147"/>
<text text-anchor="middle" x="113" y="-135.2" font-family="DejaVu Sans" font-size="11.00">NP</text>
</g>
<!-- n2&#45;&gt;n5 -->
<g id="edge5" class="edge">
<title>n2&#45;&gt;n5</title>
<path fill="none" stroke="#9ca3af" stroke-width="1.1" d="M142.22,-179.91C135.88,-171.03 125.72,-156.81 119.21,-147.7"/>
<polygon fill="#9ca3af" stroke="#9ca3af" stroke-width="1.1" points="118.91,-147.27 118.91,-147.27 118.91,-147.27 118.91,-147.27"/>
</g>
<!-- n8 -->
<g id="node9" class="node">
<title>n8</title>
<path fill="none" stroke="#6b7280" d="M204,-147C204,-147 162,-147 162,-147 159,-147 156,-144 156,-141 156,-141 156,-135 156,-135 156,-132 159,-129 162,-129 162,-129 204,-129 204,-129 207,-129 210,-132 210,-135 210,-135 210,-141 210,-141 210,-144 207,-147 204,-147"/>
<text text-anchor="middle" x="183" y="-135.2" font-family="DejaVu Sans" font-size="11.00">N$</text>
</g>
<!-- n2&#45;&gt;n8 -->
<g id="edge7" class="edge">
<title>n2&#45;&gt;n8</title>
<path fill="none" stroke="#9ca3af" stroke-width="1.1" d="M153.78,-179.91C160.12,-171.03 170.28,-156.81 176.79,-147.7"/>
<polygon fill="#9ca3af" stroke="#9ca3af" stroke-width="1.1" points="177.09,-147.27 177.09,-147.27 177.09,-147.27 177.09,-147.27"/>
</g>
<!-- n4 -->
<g id="node5" class="node">
<title>n4</title>
<text text-anchor="middle" x="35" y="-75.2" font-family="DejaVu Sans Bold" font-size="11.00" fill="#111827">niGidiwa</text>
</g>
<!-- n3&#45;&gt;n4 -->
<g id="edge1" class="edge">
<title>n3&#45;&gt;n4</title>
<path fill="none" stroke="#9ca3af" stroke-width="1.1" d="M38.44,-128.94C37.86,-120.54 36.94,-107.12 36.19,-96.3"/>
<polygon fill="#9ca3af" stroke="#9ca3af" stroke-width="1.1" points="36.18,-96.05 36.18,-96.05 36.18,-96.05 36.18,-96.05"/>
</g>
<!-- n6 -->
<g id="node7" class="node">
<title>n6</title>
<path fill="none" stroke="#6b7280" d="M134,-87C134,-87 92,-87 92,-87 89,-87 86,-84 86,-81 86,-81 86,-75 86,-75 86,-72 89,-69 92,-69 92,-69 134,-69 134,-69 137,-69 140,-72 140,-75 140,-75 140,-81 140,-81 140,-84 137,-87 134,-87"/>
<text text-anchor="middle" x="113" y="-75.2" font-family="DejaVu Sans" font-size="11.00">N</text>
</g>
<!-- n5&#45;&gt;n6 -->
<g id="edge4" class="edge">
<title>n5&#45;&gt;n6</title>
<path fill="none" stroke="#9ca3af" stroke-width="1.1" d="M113,-128.94C113,-118.06 113,-98.79 113,-87.63"/>
<polygon fill="#9ca3af" stroke="#9ca3af" stroke-width="1.1" points="113,-87.37 113,-87.37 113,-87.37 113,-87.37"/>
</g>
<!-- n7 -->
<g id="node8" class="node">
<title>n7</title>
<text text-anchor="middle" x="113" y="-15.2" font-family="DejaVu Sans Bold" font-size="11.00" fill="#111827">okokodi</text>
</g>
<!-- n6&#45;&gt;n7 -->
<g id="edge3" class="edge">
<title>n6&#45;&gt;n7</title>
<path fill="none" stroke="#9ca3af" stroke-width="1.1" d="M113,-68.94C113,-60.54 113,-47.12 113,-36.3"/>
<polygon fill="#9ca3af" stroke="#9ca3af" stroke-width="1.1" points="113,-36.05 113,-36.05 113,-36.05 113,-36.05"/>
</g>
<!-- n9 -->
<g id="node10" class="node">
<title>n9</title>
<text text-anchor="middle" x="188" y="-75.2" font-family="DejaVu Sans Bold" font-size="11.00" fill="#111827">ligetedi</text>
</g>
<!-- n8&#45;&gt;n9 -->
<g id="edge6" class="edge">
<title>n8&#45;&gt;n9</title>
<path fill="none" stroke="#9ca3af" stroke-width="1.1" d="M183.7,-128.94C184.42,-120.54 185.58,-107.12 186.51,-96.3"/>
<polygon fill="#9ca3af" stroke="#9ca3af" stroke-width="1.1" points="186.53,-96.05 186.53,-96.05 186.53,-96.05 186.53,-96.05"/>
</g>
<!-- n11 -->
<g id="node12" class="node">
<title>n11</title>
<text text-anchor="middle" x="253" y="-135.2" font-family="DejaVu Sans Bold" font-size="11.00" fill="#111827">liwigo</text>
</g>
<!-- n10&#45;&gt;n11 -->
<g id="edge9" class="edge">
<title>n10&#45;&gt;n11</title>
<path fill="none" stroke="#9ca3af" stroke-width="1.1" d="M253,-179.91C253,-173.59 253,-164.59 253,-156.63"/>
<polygon fill="#9ca3af" stroke="#9ca3af" stroke-width="1.1" points="253,-156.25 253,-156.25 253,-156.25 253,-156.25"/>
</g>
<!-- n13 -->
<g id="node14" class="node">
<title>n13</title>
<path fill="none" stroke="#6b7280" d="M356,-198C356,-198 314,-198 314,-198 311,-198 308,-195 308,-192 308,-192 308,-186 308,-186 308,-183 311,-180 314,-180 314,-180 356,-180 356,-180 359,-180 362,-183 362,-186 362,-186 362,-192 362,-192 362,-195 359,-198 356,-198"/>
<text text-anchor="middle" x="335" y="-186.2" font-family="DejaVu Sans" font-size="11.00">N$</text>
</g>
<!-- n12&#45;&gt;n13 -->
<g id="edge13" class="edge">
<title>n12&#45;&gt;n13</title>
<path fill="none" stroke="#9ca3af" stroke-width="1.1" d="M328.62,-221.91C329.99,-215.07 331.93,-205.33 333.32,-198.41"/>
<polygon fill="#9ca3af" stroke="#9ca3af" stroke-width="1.1" points="333.38,-198.08 333.38,-198.08 333.38,-198.08 333.38,-198.08"/>
</g>
<!-- n14 -->
<g id="node15" class="node">
<title>n14</title>
<text text-anchor="middle" x="339" y="-135.2" font-family="DejaVu Sans Bold" font-size="11.00" fill="#111827">libinienaGa</text>
</g>
<!-- n13&#45;&gt;n14 -->
<g id="edge12" class="edge">
<title>n13&#45;&gt;n14</title>
<path fill="none" stroke="#9ca3af" stroke-width="1.1" d="M335.66,-179.91C336.18,-173.59 336.91,-164.59 337.56,-156.63"/>
<polygon fill="#9ca3af" stroke="#9ca3af" stroke-width="1.1" points="337.59,-156.25 337.59,-156.25 337.59,-156.25 337.59,-156.25"/>
</g>
</g>
</svg>
