<?xml version="1.0" encoding="UTF-8" standalone="no"?>
<!DOCTYPE svg PUBLIC "-//W3C//DTD SVG 1.1//EN"
 "http://www.w3.org/Graphics/SVG/1.1/DTD/svg11.dtd">
<!-- Generated by graphviz version 2.43.0 (0)
 -->
<!-- Title: tree Pages: 1 -->
<svg width="482pt" height="362pt"
 viewBox="5.76 5.76 475.76 355.76" xmlns="http://www.w3.org/2000/svg" xmlns:xlink="http://www.w3.org/1999/xlink">
<g id="graph0" class="graph" transform="scale(1 1) rotate(0) translate(9.76 351.76)">
<title>tree</title>
<polygon fill="white" stroke="transparent" points="-4,4 -4,-346 466,-346 466,4 -4,4"/>
<!-- n0 -->
<g id="node1" class="node">
<title>n0</title>
<path fill="none" stroke="#6b7280" d="M208,-342C208,-342 166,-342 166,-342 163,-342 160,-339 160,-336 160,-336 160,-330 160,-330 160,-327 163,-324 166,-324 166,-324 208,-324 208,-324 211,-324 214,-327 214,-330 214,-330 214,-336 214,-336 214,-339 211,-342 208,-342"/>
<text text-anchor="middle" x="187" y="-330.2" font-family="DejaVu Sans" font-size="11.00">IP&#45;MAT</text>
</g>
<!-- n1 -->
<g id="node2" class="node">
<title>n1</title>
<path fill="none" stroke="#6b7280" d="M171,-300C171,-300 129,-300 129,-300 126,-300 123,-297 123,-294 123,-294 123,-288 123,-288 123,-285 126,-282 129,-282 129,-282 171,-282 171,-282 174,-282 177,-285 177,-288 177,-288 177,-294 177,-294 177,-297 174,-300 171,-300"/>
<text text-anchor="middle" x="150" y="-288.2" font-family="DejaVu Sans" font-size="11.00">NP&#45;SBJ</text>
</g>
<!-- n0&#45;&gt;n1 -->
<g id="edge8" class="edge">
<title>n0&#45;&gt;n1</title>
<path fill="none" stroke="#9ca3af" stroke-width="1.1" d="M179.51,-323.91C173.19,-317.07 164.18,-307.33 157.78,-300.41"/>
<polygon fill="#9ca3af" stroke="#9ca3af" stroke-width="1.1" points="157.48,-300.08 157.48,-300.08 157.48,-300.08 157.48,-300.08"/>
</g>
<!-- n9 -->
<g id="node10" class="node">
<title>n9</title>
<path fill="none" stroke="#6b7280" d="M284,-300C284,-300 242,-300 242,-300 239,-300 236,-297 236,-294 236,-294 236,-288 236,-288 236,-285 239,-282 242,-282 242,-282 284,-282 284,-282 287,-282 290,-285 290,-288 290,-288 290,-294 290,-294 290,-297 287,-300 284,-300"/>
<text text-anchor="middle" x="263" y="-288.2" font-family="DejaVu Sans" font-size="11.00">CP&#45;me</text>
</g>
<!-- n0&#45;&gt;n9 -->
<g id="edge20" class="edge">
<title>n0&#45;&gt;n9</title>
<path fill="none" stroke="#9ca3af" stroke-width="1.1" d="M202.38,-323.91C215.46,-317.02 234.17,-307.17 247.33,-300.25"/>
<polygon fill="#9ca3af" stroke="#9ca3af" stroke-width="1.1" points="247.64,-300.08 247.64,-300.08 247.64,-300.08 247.64,-300.08"/>
</g>
<!-- n2 -->
<g id="node3" class="node">
<title>n2</title>
<path fill="none" stroke="#6b7280" d="M61,-258C61,-258 19,-258 19,-258 16,-258 13,-255 13,-252 13,-252 13,-246 13,-246 13,-243 16,-240 19,-240 19,-240 61,-240 61,-240 64,-240 67,-243 67,-246 67,-246 67,-252 67,-252 67,-255 64,-258 61,-258"/>
<text text-anchor="middle" x="40" y="-246.2" font-family="DejaVu Sans" font-size="11.00">D</text>
</g>
<!-- n1&#45;&gt;n2 -->
<g id="edge2" class="edge">
<title>n1&#45;&gt;n2</title>
<path fill="none" stroke="#9ca3af" stroke-width="1.1" d="M127.74,-281.91C108.8,-275.02 81.73,-265.17 62.68,-258.25"/>
<polygon fill="#9ca3af" stroke="#9ca3af" stroke-width="1.1" points="62.23,-258.08 62.23,-258.08 62.23,-258.08 62.23,-258.08"/>
</g>
<!-- n4 -->
<g id="node5" class="node">
<title>n4</title>
<path fill="none" stroke="#6b7280" d="M135,-258C135,-258 93,-258 93,-258 90,-258 87,-255 87,-252 87,-252 87,-246 87,-246 87,-243 90,-240 93,-240 93,-240 135,-240 135,-240 138,-240 141,-243 141,-246 141,-246 141,-252 141,-252 141,-255 138,-258 135,-258"/>
<text text-anchor="middle" x="114" y="-246.2" font-family="DejaVu Sans" font-size="11.00">NP</text>
</g>
<!-- n1&#45;&gt;n4 -->
<g id="edge5" class="edge">
<title>n1&#45;&gt;n4</title>
<path fill="none" stroke="#9ca3af" stroke-width="1.1" d="M142.71,-281.91C136.57,-275.07 127.8,-265.33 121.57,-258.41"/>
<polygon fill="#9ca3af" stroke="#9ca3af" stroke-width="1.1" points="121.27,-258.08 121.27,-258.08 121.27,-258.08 121.27,-258.08"/>
</g>
<!-- n7 -->
<g id="node8" class="node">
<title>n7</title>
<path fill="none" stroke="#6b7280" d="M207,-258C207,-258 165,-258 165,-258 162,-258 159,-255 159,-252 159,-252 159,-246 159,-246 159,-243 162,-240 165,-240 165,-240 207,-240 207,-240 210,-240 213,-243 213,-246 213,-246 213,-252 213,-252 213,-255 210,-258 207,-258"/>
<text text-anchor="middle" x="186" y="-246.2" font-family="DejaVu Sans" font-size="11.00">N$</text>
</g>
<!-- n1&#45;&gt;n7 -->
<g id="edge7" class="edge">
<title>n1&#45;&gt;n7</title>
<path fill="none" stroke="#9ca3af" stroke-width="1.1" d="M157.29,-281.91C163.43,-275.07 172.2,-265.33 178.43,-258.41"/>
<polygon fill="#9ca3af" stroke="#9ca3af" stroke-width="1.1" points="178.73,-258.08 178.73,-258.08 178.73,-258.08 178.73,-258.08"/>
</g>
<!-- n3 -->
<g id="node4" class="node">
<title>n3</title>
<text text-anchor="middle" x="35" y="-195.2" font-family="DejaVu Sans Bold" font-size="11.00" fill="#111827">niGidiwa</text>
</g>
<!-- n2&#45;&gt;n3 -->
<g id="edge1" class="edge">
<title>n2&#45;&gt;n3</title>
<path fill="none" stroke="#9ca3af" stroke-width="1.1" d="M39.17,-239.91C38.53,-233.59 37.61,-224.59 36.8,-216.63"/>
<polygon fill="#9ca3af" stroke="#9ca3af" stroke-width="1.1" points="36.76,-216.25 36.76,-216.25 36.76,-216.25 36.76,-216.25"/>
</g>
<!-- n5 -->
<g id="node6" class="node">
<title>n5</title>
<path fill="none" stroke="#6b7280" d="M134,-207C134,-207 92,-207 92,-207 89,-207 86,-204 86,-201 86,-201 86,-195 86,-195 86,-192 89,-189 92,-189 92,-189 134,-189 134,-189 137,-189 140,-192 140,-195 140,-195 140,-201 140,-201 140,-204 137,-207 134,-207"/>
<text text-anchor="middle" x="113" y="-195.2" font-family="DejaVu Sans" font-size="11.00">N</text>
</g>
<!-- n4&#45;&gt;n5 -->
<g id="edge4" class="edge">
<title>n4&#45;&gt;n5</title>
<path fill="none" stroke="#9ca3af" stroke-width="1.1" d="M113.83,-239.91C113.65,-231.03 113.36,-216.81 113.18,-207.7"/>
<polygon fill="#9ca3af" stroke="#9ca3af" stroke-width="1.1" points="113.17,-207.27 113.17,-207.27 113.17,-207.27 113.17,-207.27"/>
</g>
<!-- n6 -->
<g id="node7" class="node">
<title>n6</title>
<text text-anchor="middle" x="113" y="-135.2" font-family="DejaVu Sans Bold" font-size="11.00" fill="#111827">okokodi</text>
</g>
<!-- n5&#45;&gt;n6 -->
<g id="edge3" class="edge">
<title>n5&#45;&gt;n6</title>
<path fill="none" stroke="#9ca3af" stroke-width="1.1" d="M113,-188.94C113,-180.54 113,-167.12 113,-156.3"/>
<polygon fill="#9ca3af" stroke="#9ca3af" stroke-width="1.1" points="113,-156.05 113,-156.05 113,-156.05 113,-156.05"/>
</g>
<!-- n8 -->
<g id="node9" class="node">
<title>n8</title>
<text text-anchor="middle" x="188" y="-195.2" font-family="DejaVu Sans Bold" font-size="11.00" fill="#111827">ligetedi</text>
</g>
<!-- n7&#45;&gt;n8 -->
<g id="edge6" class="edge">
<title>n7&#45;&gt;n8</title>
<path fill="none" stroke="#9ca3af" stroke-width="1.1" d="M186.33,-239.91C186.59,-233.59 186.96,-224.59 187.28,-216.63"/>
<polygon fill="#9ca3af" stroke="#9ca3af" stroke-width="1.1" points="187.3,-216.25 187.3,-216.25 187.3,-216.25 187.3,-216.25"/>
</g>
<!-- n10 -->
<g id="node11" class="node">
<title>n10</title>
<path fill="none" stroke="#6b7280" d="M284,-258C284,-258 242,-258 242,-258 239,-258 236,-255 236,-252 236,-252 236,-246 236,-246 236,-243 239,-240 242,-240 242,-240 284,-240 284,-240 287,-240 290,-243 290,-246 290,-246 290,-252 290,-252 290,-255 287,-258 284,-258"/>
<text text-anchor="middle" x="263" y="-246.2" font-family="DejaVu Sans" font-size="11.00">C</text>
</g>
<!-- n9&#45;&gt;n10 -->
<g id="edge10" class="edge">
<title>n9&#45;&gt;n10</title>
<path fill="none" stroke="#9ca3af" stroke-width="1.1" d="M263,-281.91C263,-275.07 263,-265.33 263,-258.41"/>
<polygon fill="#9ca3af" stroke="#9ca3af" stroke-width="1.1" points="263,-258.08 263,-258.08 263,-258.08 263,-258.08"/>
</g>
<!-- n12 -->
<g id="node13" class="node">
<title>n12</title>
<path fill="none" stroke="#6b7280" d="M354,-258C354,-258 312,-258 312,-258 309,-258 306,-255 306,-252 306,-252 306,-246 306,-246 306,-243 309,-240 312,-240 312,-240 354,-240 354,-240 357,-240 360,-243 360,-246 360,-246 360,-252 360,-252 360,-255 357,-258 354,-258"/>
<text text-anchor="middle" x="333" y="-246.2" font-family="DejaVu Sans" font-size="11.00">IP&#45;SUB</text>
</g>
<!-- n9&#45;&gt;n12 -->
<g id="edge19" class="edge">
<title>n9&#45;&gt;n12</title>
<path fill="none" stroke="#9ca3af" stroke-width="1.1" d="M277.17,-281.91C289.22,-275.02 306.45,-265.17 318.57,-258.25"/>
<polygon fill="#9ca3af" stroke="#9ca3af" stroke-width="1.1" points="318.86,-258.08 318.86,-258.08 318.86,-258.08 318.86,-258.08"/>
</g>
<!-- n11 -->
<g id="node12" class="node">
<title>n11</title>
<text text-anchor="middle" x="263" y="-195.2" font-family="DejaVu Sans Bold" font-size="11.00" fill="#111827">me@</text>
</g>
<!-- n10&#45;&gt;n11 -->
<g id="edge9" class="edge">
<title>n10&#45;&gt;n11</title>
<path fill="none" stroke="#9ca3af" stroke-width="1.1" d="M263,-239.91C263,-233.59 263,-224.59 263,-216.63"/>
<polygon fill="#9ca3af" stroke="#9ca3af" stroke-width="1.1" points="263,-216.25 263,-216.25 263,-216.25 263,-216.25"/>
</g>
<!-- n13 -->
<g id="node14" class="node">
<title>n13</title>
<path fill="none" stroke="#6b7280" d="M354,-207C354,-207 312,-207 312,-207 309,-207 306,-204 306,-201 306,-201 306,-195 306,-195 306,-192 309,-189 312,-189 312,-189 354,-189 354,-189 357,-189 360,-192 360,-195 360,-195 360,-201 360,-201 360,-204 357,-207 354,-207"/>
<text text-anchor="middle" x="333" y="-195.2" font-family="DejaVu Sans" font-size="11.00">NP</text>
</g>
<!-- n12&#45;&gt;n13 -->
<g id="edge18" class="edge">
<title>n12&#45;&gt;n13</title>
<path fill="none" stroke="#9ca3af" stroke-width="1.1" d="M333,-239.91C333,-231.03 333,-216.81 333,-207.7"/>
<polygon fill="#9ca3af" stroke="#9ca3af" stroke-width="1.1" points="333,-207.27 333,-207.27 333,-207.27 333,-207.27"/>
</g>
<!-- n14 -->
<g id="node15" class="node">
<title>n14</title>
<path fill="none" stroke="#6b7280" d="M284,-147C284,-147 242,-147 242,-147 239,-147 236,-144 236,-141 236,-141 236,-135 236,-135 236,-132 239,-129 242,-129 242,-129 284,-129 284,-129 287,-129 290,-132 290,-135 290,-135 290,-141 290,-141 290,-144 287,-147 284,-147"/>
<text text-anchor="middle" x="263" y="-135.2" font-family="DejaVu Sans" font-size="11.00">D</text>
</g>
<!-- n13&#45;&gt;n14 -->
<g id="edge12" class="edge">
<title>n13&#45;&gt;n14</title>
<path fill="none" stroke="#9ca3af" stroke-width="1.1" d="M323.27,-188.94C310.15,-178.06 286.88,-158.79 273.42,-147.63"/>
<polygon fill="#9ca3af" stroke="#9ca3af" stroke-width="1.1" points="273.1,-147.37 273.1,-147.37 273.1,-147.37 273.1,-147.37"/>
</g>
<!-- n16 -->
<g id="node17" class="node">
<title>n16</title>
<path fill="none" stroke="#6b7280" d="M354,-147C354,-147 312,-147 312,-147 309,-147 306,-144 306,-141 306,-141 306,-135 306,-135 306,-132 309,-129 312,-129 312,-129 354,-129 354,-129 357,-129 360,-132 360,-135 360,-135 360,-141 360,-141 360,-144 357,-147 354,-147"/>
<text text-anchor="middle" x="333" y="-135.2" font-family="DejaVu Sans" font-size="11.00">NP</text>
</g>
<!-- n13&#45;&gt;n16 -->
<g id="edge15" class="edge">
<title>n13&#45;&gt;n16</title>
<path fill="none" stroke="#9ca3af" stroke-width="1.1" d="M333,-188.94C333,-178.06 333,-158.79 333,-147.63"/>
<polygon fill="#9ca3af" stroke="#9ca3af" stroke-width="1.1" points="333,-147.37 333,-147.37 333,-147.37 333,-147.37"/>
</g>
<!-- n19 -->
<g id="node20" class="node">
<title>n19</title>
<path fill="none" stroke="#6b7280" d="M432,-147C432,-147 390,-147 390,-147 387,-147 384,-144 384,-141 384,-141 384,-135 384,-135 384,-132 387,-129 390,-129 390,-129 432,-129 432,-129 435,-129 438,-132 438,-135 438,-135 438,-141 438,-141 438,-144 435,-147 432,-147"/>
<text text-anchor="middle" x="411" y="-135.2" font-family="DejaVu Sans" font-size="11.00">N$</text>
</g>
<!-- n13&#45;&gt;n19 -->
<g id="edge17" class="edge">
<title>n13&#45;&gt;n19</title>
<path fill="none" stroke="#9ca3af" stroke-width="1.1" d="M343.85,-188.94C358.47,-178.06 384.39,-158.79 399.39,-147.63"/>
<polygon fill="#9ca3af" stroke="#9ca3af" stroke-width="1.1" points="399.74,-147.37 399.74,-147.37 399.74,-147.37 399.74,-147.37"/>
</g>
<!-- n15 -->
<g id="node16" class="node">
<title>n15</title>
<text text-anchor="middle" x="263" y="-75.2" font-family="DejaVu Sans Bold" font-size="11.00" fill="#111827">@idi</text>
</g>
<!-- n14&#45;&gt;n15 -->
<g id="edge11" class="edge">
<title>n14&#45;&gt;n15</title>
<path fill="none" stroke="#9ca3af" stroke-width="1.1" d="M263,-128.94C263,-120.54 263,-107.12 263,-96.3"/>
<polygon fill="#9ca3af" stroke="#9ca3af" stroke-width="1.1" points="263,-96.05 263,-96.05 263,-96.05 263,-96.05"/>
</g>
<!-- n17 -->
<g id="node18" class="node">
<title>n17</title>
<path fill="none" stroke="#6b7280" d="M354,-87C354,-87 312,-87 312,-87 309,-87 306,-84 306,-81 306,-81 306,-75 306,-75 306,-72 309,-69 312,-69 312,-69 354,-69 354,-69 357,-69 360,-72 360,-75 360,-75 360,-81 360,-81 360,-84 357,-87 354,-87"/>
<text text-anchor="middle" x="333" y="-75.2" font-family="DejaVu Sans" font-size="11.00">N</text>
</g>
<!-- n16&#45;&gt;n17 -->
<g id="edge14" class="edge">
<title>n16&#45;&gt;n17</title>
<path fill="none" stroke="#9ca3af" stroke-width="1.1" d="M333,-128.94C333,-118.06 333,-98.79 333,-87.63"/>
<polygon fill="#9ca3af" stroke="#9ca3af" stroke-width="1.1" points="333,-87.37 333,-87.37 333,-87.37 333,-87.37"/>
</g>
<!-- n18 -->
<g id="node19" class="node">
<title>n18</title>
<text text-anchor="middle" x="333" y="-15.2" font-family="DejaVu Sans Bold" font-size="11.00" fill="#111827">niwigo</text>
</g>
<!-- n17&#45;&gt;n18 -->
<g id="edge13" class="edge">
<title>n17&#45;&gt;n18</title>
<path fill="none" stroke="#9ca3af" stroke-width="1.1" d="M333,-68.94C333,-60.54 333,-47.12 333,-36.3"/>
<polygon fill="#9ca3af" stroke="#9ca3af" stroke-width="1.1" points="333,-36.05 333,-36.05 333,-36.05 333,-36.05"/>
</g>
<!-- n20 -->
<g id="node21" class="node">
<title>n20</title>
<text text-anchor="middle" x="419" y="-75.2" font-family="DejaVu Sans Bold" font-size="11.00" fill="#111827">libinienaGa</text>
</g>
<!-- n19&#45;&gt;n20 -->
<g id="edge16" class="edge">
<title>n19&#45;&gt;n20</title>
<path fill="none" stroke="#9ca3af" stroke-width="1.1" d="M412.11,-128.94C413.27,-120.54 415.12,-107.12 416.61,-96.3"/>
<polygon fill="#9ca3af" stroke="#9ca3af" stroke-width="1.1" points="416.65,-96.05 416.65,-96.05 416.65,-96.05 416.65,-96.05"/>
</g>
</g>
</svg>
