<?xml version="1.0" encoding="UTF-8" standalone="no"?>
<!DOCTYPE svg PUBLIC "-//W3C//DTD SVG 1.1//EN"
 "http://www.w3.org/Graphics/SVG/1.1/DTD/svg11.dtd">
<!-- Generated by graphviz version 2.43.0 (0)
 -->
<!-- Title: tree Pages: 1 -->
<svg width="585pt" height="200pt"
 viewBox="5.76 5.76 579.26 193.76" xmlns="http://www.w3.org/2000/svg" xmlns:xlink="http://www.w3.org/1999/xlink">
<g id="graph0" class="graph" transform="scale(1 1) rotate(0) translate(9.76 189.76)">
<title>tree</title>
<polygon fill="white" stroke="transparent" points="-4,4 -4,-184 569.5,-184 569.5,4 -4,4"/>
<!-- n0 -->
<g id="node1" class="node">
<title>n0</title>
<path fill="none" stroke="#6b7280" d="M296,-180C296,-180 254,-180 254,-180 251,-180 248,-177 248,-174 248,-174 248,-168 248,-168 248,-165 251,-162 254,-162 254,-162 296,-162 296,-162 299,-162 302,-165 302,-168 302,-168 302,-174 302,-174 302,-177 299,-180 296,-180"/>
<text text-anchor="middle" x="275" y="-168.2" font-family="DejaVu Sans" font-size="11.00">IP&#45;MAT</text>
</g>
<!-- n1 -->
<g id="node2" class="node">
<title>n1</title>
<path fill="none" stroke="#6b7280" d="M122,-138C122,-138 80,-138 80,-138 77,-138 74,-135 74,-132 74,-132 74,-126 74,-126 74,-123 77,-120 80,-120 80,-120 122,-120 122,-120 125,-120 128,-123 128,-126 128,-126 128,-132 128,-132 128,-135 125,-138 122,-138"/>
<text text-anchor="middle" x="101" y="-126.2" font-family="DejaVu Sans" font-size="11.00">NP&#45;SBJ</text>
</g>
<!-- n0&#45;&gt;n1 -->
<g id="edge5" class="edge">
<title>n0&#45;&gt;n1</title>
<path fill="none" stroke="#9ca3af" stroke-width="1.1" d="M247.81,-163.75C215.35,-156.29 161.34,-143.87 128.67,-136.36"/>
<polygon fill="#9ca3af" stroke="#9ca3af" stroke-width="1.1" points="128.28,-136.27 128.28,-136.27 128.28,-136.27 128.28,-136.27"/>
</g>
<!-- n6 -->
<g id="node7" class="node">
<title>n6</title>
<path fill="none" stroke="#6b7280" d="M265.5,-138C265.5,-138 204.5,-138 204.5,-138 201.5,-138 198.5,-135 198.5,-132 198.5,-132 198.5,-126 198.5,-126 198.5,-123 201.5,-120 204.5,-120 204.5,-120 265.5,-120 265.5,-120 268.5,-120 271.5,-123 271.5,-126 271.5,-126 271.5,-132 271.5,-132 271.5,-135 268.5,-138 265.5,-138"/>
<text text-anchor="middle" x="235" y="-126.2" font-family="DejaVu Sans" font-size="11.00">NP&#45;SBJ&#45;PRD</text>
</g>
<!-- n0&#45;&gt;n6 -->
<g id="edge10" class="edge">
<title>n0&#45;&gt;n6</title>
<path fill="none" stroke="#9ca3af" stroke-width="1.1" d="M266.91,-161.91C260.07,-155.07 250.33,-145.33 243.41,-138.41"/>
<polygon fill="#9ca3af" stroke="#9ca3af" stroke-width="1.1" points="243.08,-138.08 243.08,-138.08 243.08,-138.08 243.08,-138.08"/>
</g>
<!-- n11 -->
<g id="node12" class="node">
<title>n11</title>
<path fill="none" stroke="#6b7280" d="M336,-138C336,-138 294,-138 294,-138 291,-138 288,-135 288,-132 288,-132 288,-126 288,-126 288,-123 291,-120 294,-120 294,-120 336,-120 336,-120 339,-120 342,-123 342,-126 342,-126 342,-132 342,-132 342,-135 339,-138 336,-138"/>
<text text-anchor="middle" x="315" y="-126.2" font-family="DejaVu Sans" font-size="11.00">NEG</text>
</g>
<!-- n0&#45;&gt;n11 -->
<g id="edge12" class="edge">
<title>n0&#45;&gt;n11</title>
<path fill="none" stroke="#9ca3af" stroke-width="1.1" d="M283.09,-161.91C289.93,-155.07 299.67,-145.33 306.59,-138.41"/>
<polygon fill="#9ca3af" stroke="#9ca3af" stroke-width="1.1" points="306.92,-138.08 306.92,-138.08 306.92,-138.08 306.92,-138.08"/>
</g>
<!-- n13 -->
<g id="node14" class="node">
<title>n13</title>
<path fill="none" stroke="#6b7280" d="M441,-138C441,-138 399,-138 399,-138 396,-138 393,-135 393,-132 393,-132 393,-126 393,-126 393,-123 396,-120 399,-120 399,-120 441,-120 441,-120 444,-120 447,-123 447,-126 447,-126 447,-132 447,-132 447,-135 444,-138 441,-138"/>
<text text-anchor="middle" x="420" y="-126.2" font-family="DejaVu Sans" font-size="11.00">NP&#45;PRD</text>
</g>
<!-- n0&#45;&gt;n13 -->
<g id="edge19" class="edge">
<title>n0&#45;&gt;n13</title>
<path fill="none" stroke="#9ca3af" stroke-width="1.1" d="M302.27,-162.48C328.1,-155.35 366.66,-144.71 392.54,-137.57"/>
<polygon fill="#9ca3af" stroke="#9ca3af" stroke-width="1.1" points="392.85,-137.49 392.85,-137.49 392.85,-137.49 392.85,-137.49"/>
</g>
<!-- n2 -->
<g id="node3" class="node">
<title>n2</title>
<path fill="none" stroke="#6b7280" d="M50,-87C50,-87 8,-87 8,-87 5,-87 2,-84 2,-81 2,-81 2,-75 2,-75 2,-72 5,-69 8,-69 8,-69 50,-69 50,-69 53,-69 56,-72 56,-75 56,-75 56,-81 56,-81 56,-84 53,-87 50,-87"/>
<text text-anchor="middle" x="29" y="-75.2" font-family="DejaVu Sans" font-size="11.00">D</text>
</g>
<!-- n1&#45;&gt;n2 -->
<g id="edge2" class="edge">
<title>n1&#45;&gt;n2</title>
<path fill="none" stroke="#9ca3af" stroke-width="1.1" d="M89.11,-119.91C75.95,-110.95 54.84,-96.59 41.46,-87.48"/>
<polygon fill="#9ca3af" stroke="#9ca3af" stroke-width="1.1" points="41.15,-87.27 41.15,-87.27 41.15,-87.27 41.15,-87.27"/>
</g>
<!-- n4 -->
<g id="node5" class="node">
<title>n4</title>
<path fill="none" stroke="#6b7280" d="M122,-87C122,-87 80,-87 80,-87 77,-87 74,-84 74,-81 74,-81 74,-75 74,-75 74,-72 77,-69 80,-69 80,-69 122,-69 122,-69 125,-69 128,-72 128,-75 128,-75 128,-81 128,-81 128,-84 125,-87 122,-87"/>
<text text-anchor="middle" x="101" y="-75.2" font-family="DejaVu Sans" font-size="11.00">N$</text>
</g>
<!-- n1&#45;&gt;n4 -->
<g id="edge4" class="edge">
<title>n1&#45;&gt;n4</title>
<path fill="none" stroke="#9ca3af" stroke-width="1.1" d="M101,-119.91C101,-111.03 101,-96.81 101,-87.7"/>
<polygon fill="#9ca3af" stroke="#9ca3af" stroke-width="1.1" points="101,-87.27 101,-87.27 101,-87.27 101,-87.27"/>
</g>
<!-- n3 -->
<g id="node4" class="node">
<title>n3</title>
<text text-anchor="middle" x="27" y="-15.2" font-family="DejaVu Sans Bold" font-size="11.00" fill="#111827">niGijo</text>
</g>
<!-- n2&#45;&gt;n3 -->
<g id="edge1" class="edge">
<title>n2&#45;&gt;n3</title>
<path fill="none" stroke="#9ca3af" stroke-width="1.1" d="M28.72,-68.94C28.43,-60.54 27.97,-47.12 27.6,-36.3"/>
<polygon fill="#9ca3af" stroke="#9ca3af" stroke-width="1.1" points="27.59,-36.05 27.59,-36.05 27.59,-36.05 27.59,-36.05"/>
</g>
<!-- n5 -->
<g id="node6" class="node">
<title>n5</title>
<text text-anchor="middle" x="101" y="-15.2" font-family="DejaVu Sans Bold" font-size="11.00" fill="#111827">lodaajo</text>
</g>
<!-- n4&#45;&gt;n5 -->
<g id="edge3" class="edge">
<title>n4&#45;&gt;n5</title>
<path fill="none" stroke="#9ca3af" stroke-width="1.1" d="M101,-68.94C101,-60.54 101,-47.12 101,-36.3"/>
<polygon fill="#9ca3af" stroke="#9ca3af" stroke-width="1.1" points="101,-36.05 101,-36.05 101,-36.05 101,-36.05"/>
</g>
<!-- n7 -->
<g id="node8" class="node">
<title>n7</title>
<path fill="none" stroke="#6b7280" d="M196,-87C196,-87 154,-87 154,-87 151,-87 148,-84 148,-81 148,-81 148,-75 148,-75 148,-72 151,-69 154,-69 154,-69 196,-69 196,-69 199,-69 202,-72 202,-75 202,-75 202,-81 202,-81 202,-84 199,-87 196,-87"/>
<text text-anchor="middle" x="175" y="-75.2" font-family="DejaVu Sans" font-size="11.00">D</text>
</g>
<!-- n6&#45;&gt;n7 -->
<g id="edge7" class="edge">
<title>n6&#45;&gt;n7</title>
<path fill="none" stroke="#9ca3af" stroke-width="1.1" d="M225.09,-119.91C214.13,-110.95 196.54,-96.59 185.39,-87.48"/>
<polygon fill="#9ca3af" stroke="#9ca3af" stroke-width="1.1" points="185.12,-87.27 185.12,-87.27 185.12,-87.27 185.12,-87.27"/>
</g>
<!-- n9 -->
<g id="node10" class="node">
<title>n9</title>
<path fill="none" stroke="#6b7280" d="M266,-87C266,-87 224,-87 224,-87 221,-87 218,-84 218,-81 218,-81 218,-75 218,-75 218,-72 221,-69 224,-69 224,-69 266,-69 266,-69 269,-69 272,-72 272,-75 272,-75 272,-81 272,-81 272,-84 269,-87 266,-87"/>
<text text-anchor="middle" x="245" y="-75.2" font-family="DejaVu Sans" font-size="11.00">N$</text>
</g>
<!-- n6&#45;&gt;n9 -->
<g id="edge9" class="edge">
<title>n6&#45;&gt;n9</title>
<path fill="none" stroke="#9ca3af" stroke-width="1.1" d="M236.65,-119.91C238.46,-111.03 241.36,-96.81 243.23,-87.7"/>
<polygon fill="#9ca3af" stroke="#9ca3af" stroke-width="1.1" points="243.31,-87.27 243.31,-87.27 243.31,-87.27 243.31,-87.27"/>
</g>
<!-- n8 -->
<g id="node9" class="node">
<title>n8</title>
<text text-anchor="middle" x="175" y="-15.2" font-family="DejaVu Sans Bold" font-size="11.00" fill="#111827">ajo</text>
</g>
<!-- n7&#45;&gt;n8 -->
<g id="edge6" class="edge">
<title>n7&#45;&gt;n8</title>
<path fill="none" stroke="#9ca3af" stroke-width="1.1" d="M175,-68.94C175,-60.54 175,-47.12 175,-36.3"/>
<polygon fill="#9ca3af" stroke="#9ca3af" stroke-width="1.1" points="175,-36.05 175,-36.05 175,-36.05 175,-36.05"/>
</g>
<!-- n10 -->
<g id="node11" class="node">
<title>n10</title>
<text text-anchor="middle" x="249" y="-15.2" font-family="DejaVu Sans Bold" font-size="11.00" fill="#111827">lodowa</text>
</g>
<!-- n9&#45;&gt;n10 -->
<g id="edge8" class="edge">
<title>n9&#45;&gt;n10</title>
<path fill="none" stroke="#9ca3af" stroke-width="1.1" d="M245.56,-68.94C246.14,-60.54 247.06,-47.12 247.81,-36.3"/>
<polygon fill="#9ca3af" stroke="#9ca3af" stroke-width="1.1" points="247.82,-36.05 247.82,-36.05 247.82,-36.05 247.82,-36.05"/>
</g>
<!-- n12 -->
<g id="node13" class="node">
<title>n12</title>
<text text-anchor="middle" x="315" y="-75.2" font-family="DejaVu Sans Bold" font-size="11.00" fill="#111827">aG@</text>
</g>
<!-- n11&#45;&gt;n12 -->
<g id="edge11" class="edge">
<title>n11&#45;&gt;n12</title>
<path fill="none" stroke="#9ca3af" stroke-width="1.1" d="M315,-119.91C315,-113.59 315,-104.59 315,-96.63"/>
<polygon fill="#9ca3af" stroke="#9ca3af" stroke-width="1.1" points="315,-96.25 315,-96.25 315,-96.25 315,-96.25"/>
</g>
<!-- n14 -->
<g id="node15" class="node">
<title>n14</title>
<path fill="none" stroke="#6b7280" d="M406,-87C406,-87 364,-87 364,-87 361,-87 358,-84 358,-81 358,-81 358,-75 358,-75 358,-72 361,-69 364,-69 364,-69 406,-69 406,-69 409,-69 412,-72 412,-75 412,-75 412,-81 412,-81 412,-84 409,-87 406,-87"/>
<text text-anchor="middle" x="385" y="-75.2" font-family="DejaVu Sans" font-size="11.00">Q</text>
</g>
<!-- n13&#45;&gt;n14 -->
<g id="edge14" class="edge">
<title>n13&#45;&gt;n14</title>
<path fill="none" stroke="#9ca3af" stroke-width="1.1" d="M414.22,-119.91C407.88,-111.03 397.72,-96.81 391.21,-87.7"/>
<polygon fill="#9ca3af" stroke="#9ca3af" stroke-width="1.1" points="390.91,-87.27 390.91,-87.27 390.91,-87.27 390.91,-87.27"/>
</g>
<!-- n16 -->
<g id="node17" class="node">
<title>n16</title>
<path fill="none" stroke="#6b7280" d="M476,-87C476,-87 434,-87 434,-87 431,-87 428,-84 428,-81 428,-81 428,-75 428,-75 428,-72 431,-69 434,-69 434,-69 476,-69 476,-69 479,-69 482,-72 482,-75 482,-75 482,-81 482,-81 482,-84 479,-87 476,-87"/>
<text text-anchor="middle" x="455" y="-75.2" font-family="DejaVu Sans" font-size="11.00">D</text>
</g>
<!-- n13&#45;&gt;n16 -->
<g id="edge16" class="edge">
<title>n13&#45;&gt;n16</title>
<path fill="none" stroke="#9ca3af" stroke-width="1.1" d="M425.78,-119.91C432.12,-111.03 442.28,-96.81 448.79,-87.7"/>
<polygon fill="#9ca3af" stroke="#9ca3af" stroke-width="1.1" points="449.09,-87.27 449.09,-87.27 449.09,-87.27 449.09,-87.27"/>
</g>
<!-- n18 -->
<g id="node19" class="node">
<title>n18</title>
<path fill="none" stroke="#6b7280" d="M551,-87C551,-87 509,-87 509,-87 506,-87 503,-84 503,-81 503,-81 503,-75 503,-75 503,-72 506,-69 509,-69 509,-69 551,-69 551,-69 554,-69 557,-72 557,-75 557,-75 557,-81 557,-81 557,-84 554,-87 551,-87"/>
<text text-anchor="middle" x="530" y="-75.2" font-family="DejaVu Sans" font-size="11.00">N$</text>
</g>
<!-- n13&#45;&gt;n18 -->
<g id="edge18" class="edge">
<title>n13&#45;&gt;n18</title>
<path fill="none" stroke="#9ca3af" stroke-width="1.1" d="M438.16,-119.91C458.39,-110.9 490.9,-96.42 511.33,-87.32"/>
<polygon fill="#9ca3af" stroke="#9ca3af" stroke-width="1.1" points="511.81,-87.1 511.81,-87.1 511.81,-87.1 511.81,-87.1"/>
</g>
<!-- n15 -->
<g id="node16" class="node">
<title>n15</title>
<text text-anchor="middle" x="381" y="-15.2" font-family="DejaVu Sans Bold" font-size="11.00" fill="#111827">@ica</text>
</g>
<!-- n14&#45;&gt;n15 -->
<g id="edge13" class="edge">
<title>n14&#45;&gt;n15</title>
<path fill="none" stroke="#9ca3af" stroke-width="1.1" d="M384.44,-68.94C383.86,-60.54 382.94,-47.12 382.19,-36.3"/>
<polygon fill="#9ca3af" stroke="#9ca3af" stroke-width="1.1" points="382.18,-36.05 382.18,-36.05 382.18,-36.05 382.18,-36.05"/>
</g>
<!-- n17 -->
<g id="node18" class="node">
<title>n17</title>
<text text-anchor="middle" x="455" y="-15.2" font-family="DejaVu Sans Bold" font-size="11.00" fill="#111827">digoida</text>
</g>
<!-- n16&#45;&gt;n17 -->
<g id="edge15" class="edge">
<title>n16&#45;&gt;n17</title>
<path fill="none" stroke="#9ca3af" stroke-width="1.1" d="M455,-68.94C455,-60.54 455,-47.12 455,-36.3"/>
<polygon fill="#9ca3af" stroke="#9ca3af" stroke-width="1.1" points="455,-36.05 455,-36.05 455,-36.05 455,-36.05"/>
</g>
<!-- n19 -->
<g id="node20" class="node">
<title>n19</title>
<text text-anchor="middle" x="534" y="-15.2" font-family="DejaVu Sans Bold" font-size="11.00" fill="#111827">liGeladi</text>
</g>
<!-- n18&#45;&gt;n19 -->
<g id="edge17" class="edge">
<title>n18&#45;&gt;n19</title>
<path fill="none" stroke="#9ca3af" stroke-width="1.1" d="M530.56,-68.94C531.14,-60.54 532.06,-47.12 532.81,-36.3"/>
<polygon fill="#9ca3af" stroke="#9ca3af" stroke-width="1.1" points="532.82,-36.05 532.82,-36.05 532.82,-36.05 532.82,-36.05"/>
</g>
</g>
</svg>
