<?xml version="1.0" encoding="UTF-8" standalone="no"?>
<!DOCTYPE svg PUBLIC "-//W3C//DTD SVG 1.1//EN"
 "http://www.w3.org/Graphics/SVG/1.1/DTD/svg11.dtd">
<!-- Generated by graphviz version 2.43.0 (0)
 -->
<!-- Title: tree Pages: 1 -->
<svg width="250pt" height="182pt"
 viewBox="5.76 5.76 244.26 175.76" xmlns="http://www.w3.org/2000/svg" xmlns:xlink="http://www.w3.org/1999/xlink">
<g id="graph0" class="graph" transform="scale(1 1) rotate(0) translate(9.76 171.76)">
<title>tree</title>
<polygon fill="white" stroke="transparent" points="-4,4 -4,-166 234.5,-166 234.5,4 -4,4"/>
<!-- n0 -->
<g id="node1" class="node">
<title>n0</title>
<path fill="none" stroke="#6b7280" d="M161,-162C161,-162 119,-162 119,-162 116,-162 113,-159 113,-156 113,-156 113,-150 113,-150 113,-147 116,-144 119,-144 119,-144 161,-144 161,-144 164,-144 167,-147 167,-150 167,-150 167,-156 167,-156 167,-159 164,-162 161,-162"/>
<text text-anchor="middle" x="140" y="-150.2" font-family="DejaVu Sans" font-size="11.00">IP&#45;MAT</text>
</g>
<!-- n1 -->
<g id="node2" class="node">
<title>n1</title>
<path fill="none" stroke="#6b7280" d="M126,-120C126,-120 84,-120 84,-120 81,-120 78,-117 78,-114 78,-114 78,-108 78,-108 78,-105 81,-102 84,-102 84,-102 126,-102 126,-102 129,-102 132,-105 132,-108 132,-108 132,-114 132,-114 132,-117 129,-120 126,-120"/>
<text text-anchor="middle" x="105" y="-108.2" font-family="DejaVu Sans" font-size="11.00">NP&#45;SBJ</text>
</g>
<!-- n0&#45;&gt;n1 -->
<g id="edge5" class="edge">
<title>n0&#45;&gt;n1</title>
<path fill="none" stroke="#9ca3af" stroke-width="1.1" d="M132.92,-143.91C126.94,-137.07 118.41,-127.33 112.36,-120.41"/>
<polygon fill="#9ca3af" stroke="#9ca3af" stroke-width="1.1" points="112.07,-120.08 112.07,-120.08 112.07,-120.08 112.07,-120.08"/>
</g>
<!-- n6 -->
<g id="node7" class="node">
<title>n6</title>
<path fill="none" stroke="#6b7280" d="M200,-120C200,-120 158,-120 158,-120 155,-120 152,-117 152,-114 152,-114 152,-108 152,-108 152,-105 155,-102 158,-102 158,-102 200,-102 200,-102 203,-102 206,-105 206,-108 206,-108 206,-114 206,-114 206,-117 203,-120 200,-120"/>
<text text-anchor="middle" x="179" y="-108.2" font-family="DejaVu Sans" font-size="11.00">NP&#45;PRD</text>
</g>
<!-- n0&#45;&gt;n6 -->
<g id="edge8" class="edge">
<title>n0&#45;&gt;n6</title>
<path fill="none" stroke="#9ca3af" stroke-width="1.1" d="M147.89,-143.91C154.55,-137.07 164.05,-127.33 170.8,-120.41"/>
<polygon fill="#9ca3af" stroke="#9ca3af" stroke-width="1.1" points="171.12,-120.08 171.12,-120.08 171.12,-120.08 171.12,-120.08"/>
</g>
<!-- n2 -->
<g id="node3" class="node">
<title>n2</title>
<path fill="none" stroke="#6b7280" d="M53,-78C53,-78 11,-78 11,-78 8,-78 5,-75 5,-72 5,-72 5,-66 5,-66 5,-63 8,-60 11,-60 11,-60 53,-60 53,-60 56,-60 59,-63 59,-66 59,-66 59,-72 59,-72 59,-75 56,-78 53,-78"/>
<text text-anchor="middle" x="32" y="-66.2" font-family="DejaVu Sans" font-size="11.00">D</text>
</g>
<!-- n1&#45;&gt;n2 -->
<g id="edge2" class="edge">
<title>n1&#45;&gt;n2</title>
<path fill="none" stroke="#9ca3af" stroke-width="1.1" d="M90.23,-101.91C77.66,-95.02 59.69,-85.17 47.05,-78.25"/>
<polygon fill="#9ca3af" stroke="#9ca3af" stroke-width="1.1" points="46.75,-78.08 46.75,-78.08 46.75,-78.08 46.75,-78.08"/>
</g>
<!-- n4 -->
<g id="node5" class="node">
<title>n4</title>
<path fill="none" stroke="#6b7280" d="M126,-78C126,-78 84,-78 84,-78 81,-78 78,-75 78,-72 78,-72 78,-66 78,-66 78,-63 81,-60 84,-60 84,-60 126,-60 126,-60 129,-60 132,-63 132,-66 132,-66 132,-72 132,-72 132,-75 129,-78 126,-78"/>
<text text-anchor="middle" x="105" y="-66.2" font-family="DejaVu Sans" font-size="11.00">N$</text>
</g>
<!-- n1&#45;&gt;n4 -->
<g id="edge4" class="edge">
<title>n1&#45;&gt;n4</title>
<path fill="none" stroke="#9ca3af" stroke-width="1.1" d="M105,-101.91C105,-95.07 105,-85.33 105,-78.41"/>
<polygon fill="#9ca3af" stroke="#9ca3af" stroke-width="1.1" points="105,-78.08 105,-78.08 105,-78.08 105,-78.08"/>
</g>
<!-- n3 -->
<g id="node4" class="node">
<title>n3</title>
<text text-anchor="middle" x="28" y="-15.2" font-family="DejaVu Sans Bold" font-size="11.00" fill="#111827">niGida</text>
</g>
<!-- n2&#45;&gt;n3 -->
<g id="edge1" class="edge">
<title>n2&#45;&gt;n3</title>
<path fill="none" stroke="#9ca3af" stroke-width="1.1" d="M31.34,-59.91C30.82,-53.59 30.09,-44.59 29.44,-36.63"/>
<polygon fill="#9ca3af" stroke="#9ca3af" stroke-width="1.1" points="29.41,-36.25 29.41,-36.25 29.41,-36.25 29.41,-36.25"/>
</g>
<!-- n5 -->
<g id="node6" class="node">
<title>n5</title>
<text text-anchor="middle" x="105" y="-15.2" font-family="DejaVu Sans Bold" font-size="11.00" fill="#111827">liwenigi</text>
</g>
<!-- n4&#45;&gt;n5 -->
<g id="edge3" class="edge">
<title>n4&#45;&gt;n5</title>
<path fill="none" stroke="#9ca3af" stroke-width="1.1" d="M105,-59.91C105,-53.59 105,-44.59 105,-36.63"/>
<polygon fill="#9ca3af" stroke="#9ca3af" stroke-width="1.1" points="105,-36.25 105,-36.25 105,-36.25 105,-36.25"/>
</g>
<!-- n7 -->
<g id="node8" class="node">
<title>n7</title>
<path fill="none" stroke="#6b7280" d="M208,-78C208,-78 166,-78 166,-78 163,-78 160,-75 160,-72 160,-72 160,-66 160,-66 160,-63 163,-60 166,-60 166,-60 208,-60 208,-60 211,-60 214,-63 214,-66 214,-66 214,-72 214,-72 214,-75 211,-78 208,-78"/>
<text text-anchor="middle" x="187" y="-66.2" font-family="DejaVu Sans" font-size="11.00">N$</text>
</g>
<!-- n6&#45;&gt;n7 -->
<g id="edge7" class="edge">
<title>n6&#45;&gt;n7</title>
<path fill="none" stroke="#9ca3af" stroke-width="1.1" d="M180.62,-101.91C181.99,-95.07 183.93,-85.33 185.32,-78.41"/>
<polygon fill="#9ca3af" stroke="#9ca3af" stroke-width="1.1" points="185.38,-78.08 185.38,-78.08 185.38,-78.08 185.38,-78.08"/>
</g>
<!-- n8 -->
<g id="node9" class="node">
<title>n8</title>
<text text-anchor="middle" x="192" y="-15.2" font-family="DejaVu Sans Bold" font-size="11.00" fill="#111827">libinienigi</text>
</g>
<!-- n7&#45;&gt;n8 -->
<g id="edge6" class="edge">
<title>n7&#45;&gt;n8</title>
<path fill="none" stroke="#9ca3af" stroke-width="1.1" d="M187.83,-59.91C188.47,-53.59 189.39,-44.59 190.2,-36.63"/>
<polygon fill="#9ca3af" stroke="#9ca3af" stroke-width="1.1" points="190.24,-36.25 190.24,-36.25 190.24,-36.25 190.24,-36.25"/>
</g>
</g>
</svg>
